{"glyphs":{"0":{"ha":726,"x_min":63,"x_max":663,"o":"m 234 -6 q 107 38 152 -6 q 63 164 63 82 l 63 720 q 107 846 63 802 q 234 890 152 890 l 492 890 q 619 846 574 890 q 663 720 663 802 l 663 164 q 619 38 663 82 q 492 -6 574 -6 l 234 -6 m 271 208 q 303 177 271 177 l 423 177 q 455 208 455 177 l 455 676 q 423 707 455 707 l 303 707 q 271 676 271 707 l 271 208 z "},"1":{"ha":404,"x_min":32,"x_max":335,"o":"m 32 884 l 335 884 l 335 0 l 126 0 l 126 701 l 32 701 l 32 884 z "},"2":{"ha":713,"x_min":51,"x_max":669,"o":"m 51 0 l 51 278 q 201 465 51 431 l 420 514 q 448 549 448 520 l 448 676 q 417 707 448 707 l 297 707 q 265 676 265 707 l 265 595 l 57 595 l 57 720 q 101 846 57 802 q 227 890 145 890 l 486 890 q 612 846 568 890 q 657 720 657 802 l 657 533 q 506 346 657 380 l 287 297 q 259 261 259 290 l 259 183 l 669 183 l 568 0 l 51 0 z "},"3":{"ha":720,"x_min":57,"x_max":657,"o":"m 57 164 l 57 289 l 265 289 l 265 208 q 297 177 265 177 l 417 177 q 448 208 448 177 l 448 328 q 417 360 448 360 l 265 360 l 265 543 l 417 543 q 448 574 448 543 l 448 676 q 417 707 448 707 l 297 707 q 265 676 265 707 l 265 606 l 57 606 l 57 720 q 101 846 57 802 q 227 890 145 890 l 486 890 q 612 846 568 890 q 657 720 657 802 l 657 530 l 577 451 l 657 371 l 657 164 q 612 38 657 82 q 486 -6 568 -6 l 227 -6 q 101 38 145 -6 q 57 164 57 82 z "},"4":{"ha":717,"x_min":32,"x_max":692,"o":"m 32 183 l 32 366 l 341 884 l 612 884 l 612 366 l 692 366 l 612 221 l 612 0 l 404 0 l 404 183 l 32 183 m 235 366 l 404 366 l 404 659 l 235 366 z "},"5":{"ha":722,"x_min":66,"x_max":678,"o":"m 66 164 l 66 290 l 274 290 l 274 210 q 306 178 274 178 l 426 178 q 457 210 457 178 l 457 365 q 426 396 457 396 l 66 396 l 66 884 l 678 884 l 577 701 l 274 701 l 274 581 l 495 581 q 621 537 577 581 q 665 410 665 492 l 665 164 q 621 38 665 82 q 495 -6 577 -6 l 236 -6 q 110 38 154 -6 q 66 164 66 82 z "},"6":{"ha":720,"x_min":63,"x_max":676,"o":"m 63 164 l 63 713 q 107 840 63 795 q 234 884 152 884 l 676 884 l 574 701 l 303 701 q 271 669 271 701 l 271 581 l 492 581 q 619 537 574 581 q 663 410 663 492 l 663 164 q 619 38 663 82 q 492 -6 574 -6 l 234 -6 q 107 38 152 -6 q 63 164 63 82 m 271 208 q 303 177 271 177 l 423 177 q 455 208 455 177 l 455 366 q 423 398 455 398 l 271 398 l 271 208 z "},"7":{"ha":638,"x_min":32,"x_max":606,"o":"m 32 701 l 32 884 l 606 884 l 606 701 l 415 307 l 415 0 l 207 0 l 207 331 q 226 409 207 371 l 372 701 l 32 701 z "},"8":{"ha":726,"x_min":63,"x_max":663,"o":"m 63 164 l 63 371 l 143 451 l 63 530 l 63 720 q 107 846 63 802 q 234 890 152 890 l 492 890 q 619 846 574 890 q 663 720 663 802 l 663 530 l 583 451 l 663 371 l 663 164 q 619 38 663 82 q 492 -6 574 -6 l 234 -6 q 107 38 152 -6 q 63 164 63 82 m 271 574 q 303 543 271 543 l 423 543 q 455 574 455 543 l 455 676 q 423 707 455 707 l 303 707 q 271 676 271 707 l 271 574 m 271 208 q 303 177 271 177 l 423 177 q 455 208 455 177 l 455 328 q 423 360 455 360 l 303 360 q 271 328 271 360 l 271 208 z "},"9":{"ha":720,"x_min":57,"x_max":657,"o":"m 657 721 l 657 172 q 612 45 657 90 q 486 1 568 1 l 158 1 l 57 184 l 417 184 q 448 216 448 184 l 448 304 l 227 304 q 101 348 145 304 q 57 475 57 393 l 57 721 q 101 847 57 803 q 227 891 145 891 l 486 891 q 612 847 568 891 q 657 721 657 803 m 448 677 q 417 708 448 708 l 297 708 q 265 677 265 708 l 265 519 q 297 487 265 487 l 448 487 l 448 677 z "},"Ġ":{"ha":694,"x_min":129,"x_max":569,"o":"m 569 1136 l 569 -253 l 129 -253 l 129 1136 l 569 1136 m 462 1043 l 234 1043 l 234 997 l 323 997 l 323 946 l 232 946 l 232 900 l 462 900 l 462 946 l 371 946 l 371 997 l 462 997 l 462 1043 m 371 864 l 232 864 l 232 720 l 462 720 l 462 766 l 371 766 l 371 864 m 323 817 l 323 766 l 278 766 l 278 817 l 323 817 m 462 682 l 232 682 l 232 636 l 323 636 l 323 585 l 232 585 l 232 539 l 371 539 l 371 636 l 462 636 l 462 682 m 462 598 l 417 598 l 417 508 l 232 508 l 232 460 l 462 460 l 462 598 m 462 429 l 323 429 l 323 352 l 371 352 l 371 384 l 417 384 l 417 318 l 278 318 l 278 429 l 232 429 l 232 273 l 462 273 l 462 429 m 462 189 l 232 189 l 232 33 l 462 33 l 462 189 m 417 144 l 417 78 l 278 78 l 278 144 l 417 144 m 462 0 l 232 0 l 232 -45 l 330 -45 l 232 -111 l 232 -157 l 462 -157 l 462 -111 l 321 -111 l 418 -45 l 462 -45 l 462 0 z "},"ġ":{"ha":694,"x_min":129,"x_max":569,"o":"m 569 1136 l 569 -253 l 129 -253 l 129 1136 l 569 1136 m 462 1043 l 234 1043 l 234 997 l 323 997 l 323 946 l 232 946 l 232 900 l 462 900 l 462 946 l 371 946 l 371 997 l 462 997 l 462 1043 m 371 864 l 232 864 l 232 720 l 462 720 l 462 766 l 371 766 l 371 864 m 323 817 l 323 766 l 278 766 l 278 817 l 323 817 m 462 682 l 232 682 l 232 636 l 323 636 l 323 585 l 232 585 l 232 539 l 371 539 l 371 636 l 462 636 l 462 682 m 462 598 l 417 598 l 417 508 l 232 508 l 232 460 l 462 460 l 462 598 m 462 429 l 323 429 l 323 352 l 371 352 l 371 384 l 417 384 l 417 318 l 278 318 l 278 429 l 232 429 l 232 273 l 462 273 l 462 429 m 462 189 l 232 189 l 232 33 l 462 33 l 462 189 m 417 144 l 417 78 l 278 78 l 278 144 l 417 144 m 462 0 l 232 0 l 232 -45 l 330 -45 l 232 -111 l 232 -157 l 462 -157 l 462 -111 l 321 -111 l 418 -45 l 462 -45 l 462 0 z "},"Ĭ":{"ha":694,"x_min":129,"x_max":569,"o":"m 569 1136 l 569 -253 l 129 -253 l 129 1136 l 569 1136 m 462 1043 l 234 1043 l 234 997 l 323 997 l 323 946 l 232 946 l 232 900 l 462 900 l 462 946 l 371 946 l 371 997 l 462 997 l 462 1043 m 371 864 l 232 864 l 232 720 l 462 720 l 462 766 l 371 766 l 371 864 m 323 817 l 323 766 l 278 766 l 278 817 l 323 817 m 462 682 l 232 682 l 232 636 l 323 636 l 323 585 l 232 585 l 232 539 l 371 539 l 371 636 l 462 636 l 462 682 m 462 598 l 417 598 l 417 508 l 232 508 l 232 460 l 462 460 l 462 598 m 462 429 l 323 429 l 323 352 l 371 352 l 371 384 l 417 384 l 417 318 l 278 318 l 278 429 l 232 429 l 232 273 l 462 273 l 462 429 m 462 189 l 232 189 l 232 33 l 462 33 l 462 189 m 417 144 l 417 78 l 278 78 l 278 144 l 417 144 m 462 0 l 232 0 l 232 -45 l 330 -45 l 232 -111 l 232 -157 l 462 -157 l 462 -111 l 321 -111 l 418 -45 l 462 -45 l 462 0 z "},"ĭ":{"ha":694,"x_min":129,"x_max":569,"o":"m 569 1136 l 569 -253 l 129 -253 l 129 1136 l 569 1136 m 462 1043 l 234 1043 l 234 997 l 323 997 l 323 946 l 232 946 l 232 900 l 462 900 l 462 946 l 371 946 l 371 997 l 462 997 l 462 1043 m 371 864 l 232 864 l 232 720 l 462 720 l 462 766 l 371 766 l 371 864 m 323 817 l 323 766 l 278 766 l 278 817 l 323 817 m 462 682 l 232 682 l 232 636 l 323 636 l 323 585 l 232 585 l 232 539 l 371 539 l 371 636 l 462 636 l 462 682 m 462 598 l 417 598 l 417 508 l 232 508 l 232 460 l 462 460 l 462 598 m 462 429 l 323 429 l 323 352 l 371 352 l 371 384 l 417 384 l 417 318 l 278 318 l 278 429 l 232 429 l 232 273 l 462 273 l 462 429 m 462 189 l 232 189 l 232 33 l 462 33 l 462 189 m 417 144 l 417 78 l 278 78 l 278 144 l 417 144 m 462 0 l 232 0 l 232 -45 l 330 -45 l 232 -111 l 232 -157 l 462 -157 l 462 -111 l 321 -111 l 418 -45 l 462 -45 l 462 0 z "},"ˈ":{"ha":694,"x_min":129,"x_max":569,"o":"m 569 1136 l 569 -253 l 129 -253 l 129 1136 l 569 1136 m 462 1043 l 234 1043 l 234 997 l 323 997 l 323 946 l 232 946 l 232 900 l 462 900 l 462 946 l 371 946 l 371 997 l 462 997 l 462 1043 m 371 864 l 232 864 l 232 720 l 462 720 l 462 766 l 371 766 l 371 864 m 323 817 l 323 766 l 278 766 l 278 817 l 323 817 m 462 682 l 232 682 l 232 636 l 323 636 l 323 585 l 232 585 l 232 539 l 371 539 l 371 636 l 462 636 l 462 682 m 462 598 l 417 598 l 417 508 l 232 508 l 232 460 l 462 460 l 462 598 m 462 429 l 323 429 l 323 352 l 371 352 l 371 384 l 417 384 l 417 318 l 278 318 l 278 429 l 232 429 l 232 273 l 462 273 l 462 429 m 462 189 l 232 189 l 232 33 l 462 33 l 462 189 m 417 144 l 417 78 l 278 78 l 278 144 l 417 144 m 462 0 l 232 0 l 232 -45 l 330 -45 l 232 -111 l 232 -157 l 462 -157 l 462 -111 l 321 -111 l 418 -45 l 462 -45 l 462 0 z "},"―":{"ha":694,"x_min":129,"x_max":569,"o":"m 569 1136 l 569 -253 l 129 -253 l 129 1136 l 569 1136 m 462 1043 l 234 1043 l 234 997 l 323 997 l 323 946 l 232 946 l 232 900 l 462 900 l 462 946 l 371 946 l 371 997 l 462 997 l 462 1043 m 371 864 l 232 864 l 232 720 l 462 720 l 462 766 l 371 766 l 371 864 m 323 817 l 323 766 l 278 766 l 278 817 l 323 817 m 462 682 l 232 682 l 232 636 l 323 636 l 323 585 l 232 585 l 232 539 l 371 539 l 371 636 l 462 636 l 462 682 m 462 598 l 417 598 l 417 508 l 232 508 l 232 460 l 462 460 l 462 598 m 462 429 l 323 429 l 323 352 l 371 352 l 371 384 l 417 384 l 417 318 l 278 318 l 278 429 l 232 429 l 232 273 l 462 273 l 462 429 m 462 189 l 232 189 l 232 33 l 462 33 l 462 189 m 417 144 l 417 78 l 278 78 l 278 144 l 417 144 m 462 0 l 232 0 l 232 -45 l 330 -45 l 232 -111 l 232 -157 l 462 -157 l 462 -111 l 321 -111 l 418 -45 l 462 -45 l 462 0 z "},"‖":{"ha":694,"x_min":129,"x_max":569,"o":"m 569 1136 l 569 -253 l 129 -253 l 129 1136 l 569 1136 m 462 1043 l 234 1043 l 234 997 l 323 997 l 323 946 l 232 946 l 232 900 l 462 900 l 462 946 l 371 946 l 371 997 l 462 997 l 462 1043 m 371 864 l 232 864 l 232 720 l 462 720 l 462 766 l 371 766 l 371 864 m 323 817 l 323 766 l 278 766 l 278 817 l 323 817 m 462 682 l 232 682 l 232 636 l 323 636 l 323 585 l 232 585 l 232 539 l 371 539 l 371 636 l 462 636 l 462 682 m 462 598 l 417 598 l 417 508 l 232 508 l 232 460 l 462 460 l 462 598 m 462 429 l 323 429 l 323 352 l 371 352 l 371 384 l 417 384 l 417 318 l 278 318 l 278 429 l 232 429 l 232 273 l 462 273 l 462 429 m 462 189 l 232 189 l 232 33 l 462 33 l 462 189 m 417 144 l 417 78 l 278 78 l 278 144 l 417 144 m 462 0 l 232 0 l 232 -45 l 330 -45 l 232 -111 l 232 -157 l 462 -157 l 462 -111 l 321 -111 l 418 -45 l 462 -45 l 462 0 z "},"‗":{"ha":694,"x_min":129,"x_max":569,"o":"m 569 1136 l 569 -253 l 129 -253 l 129 1136 l 569 1136 m 462 1043 l 234 1043 l 234 997 l 323 997 l 323 946 l 232 946 l 232 900 l 462 900 l 462 946 l 371 946 l 371 997 l 462 997 l 462 1043 m 371 864 l 232 864 l 232 720 l 462 720 l 462 766 l 371 766 l 371 864 m 323 817 l 323 766 l 278 766 l 278 817 l 323 817 m 462 682 l 232 682 l 232 636 l 323 636 l 323 585 l 232 585 l 232 539 l 371 539 l 371 636 l 462 636 l 462 682 m 462 598 l 417 598 l 417 508 l 232 508 l 232 460 l 462 460 l 462 598 m 462 429 l 323 429 l 323 352 l 371 352 l 371 384 l 417 384 l 417 318 l 278 318 l 278 429 l 232 429 l 232 273 l 462 273 l 462 429 m 462 189 l 232 189 l 232 33 l 462 33 l 462 189 m 417 144 l 417 78 l 278 78 l 278 144 l 417 144 m 462 0 l 232 0 l 232 -45 l 330 -45 l 232 -111 l 232 -157 l 462 -157 l 462 -111 l 321 -111 l 418 -45 l 462 -45 l 462 0 z "},"‛":{"ha":694,"x_min":129,"x_max":569,"o":"m 569 1136 l 569 -253 l 129 -253 l 129 1136 l 569 1136 m 462 1043 l 234 1043 l 234 997 l 323 997 l 323 946 l 232 946 l 232 900 l 462 900 l 462 946 l 371 946 l 371 997 l 462 997 l 462 1043 m 371 864 l 232 864 l 232 720 l 462 720 l 462 766 l 371 766 l 371 864 m 323 817 l 323 766 l 278 766 l 278 817 l 323 817 m 462 682 l 232 682 l 232 636 l 323 636 l 323 585 l 232 585 l 232 539 l 371 539 l 371 636 l 462 636 l 462 682 m 462 598 l 417 598 l 417 508 l 232 508 l 232 460 l 462 460 l 462 598 m 462 429 l 323 429 l 323 352 l 371 352 l 371 384 l 417 384 l 417 318 l 278 318 l 278 429 l 232 429 l 232 273 l 462 273 l 462 429 m 462 189 l 232 189 l 232 33 l 462 33 l 462 189 m 417 144 l 417 78 l 278 78 l 278 144 l 417 144 m 462 0 l 232 0 l 232 -45 l 330 -45 l 232 -111 l 232 -157 l 462 -157 l 462 -111 l 321 -111 l 418 -45 l 462 -45 l 462 0 z "},"‟":{"ha":694,"x_min":129,"x_max":569,"o":"m 569 1136 l 569 -253 l 129 -253 l 129 1136 l 569 1136 m 462 1043 l 234 1043 l 234 997 l 323 997 l 323 946 l 232 946 l 232 900 l 462 900 l 462 946 l 371 946 l 371 997 l 462 997 l 462 1043 m 371 864 l 232 864 l 232 720 l 462 720 l 462 766 l 371 766 l 371 864 m 323 817 l 323 766 l 278 766 l 278 817 l 323 817 m 462 682 l 232 682 l 232 636 l 323 636 l 323 585 l 232 585 l 232 539 l 371 539 l 371 636 l 462 636 l 462 682 m 462 598 l 417 598 l 417 508 l 232 508 l 232 460 l 462 460 l 462 598 m 462 429 l 323 429 l 323 352 l 371 352 l 371 384 l 417 384 l 417 318 l 278 318 l 278 429 l 232 429 l 232 273 l 462 273 l 462 429 m 462 189 l 232 189 l 232 33 l 462 33 l 462 189 m 417 144 l 417 78 l 278 78 l 278 144 l 417 144 m 462 0 l 232 0 l 232 -45 l 330 -45 l 232 -111 l 232 -157 l 462 -157 l 462 -111 l 321 -111 l 418 -45 l 462 -45 l 462 0 z "},"‣":{"ha":694,"x_min":129,"x_max":569,"o":"m 569 1136 l 569 -253 l 129 -253 l 129 1136 l 569 1136 m 462 1043 l 234 1043 l 234 997 l 323 997 l 323 946 l 232 946 l 232 900 l 462 900 l 462 946 l 371 946 l 371 997 l 462 997 l 462 1043 m 371 864 l 232 864 l 232 720 l 462 720 l 462 766 l 371 766 l 371 864 m 323 817 l 323 766 l 278 766 l 278 817 l 323 817 m 462 682 l 232 682 l 232 636 l 323 636 l 323 585 l 232 585 l 232 539 l 371 539 l 371 636 l 462 636 l 462 682 m 462 598 l 417 598 l 417 508 l 232 508 l 232 460 l 462 460 l 462 598 m 462 429 l 323 429 l 323 352 l 371 352 l 371 384 l 417 384 l 417 318 l 278 318 l 278 429 l 232 429 l 232 273 l 462 273 l 462 429 m 462 189 l 232 189 l 232 33 l 462 33 l 462 189 m 417 144 l 417 78 l 278 78 l 278 144 l 417 144 m 462 0 l 232 0 l 232 -45 l 330 -45 l 232 -111 l 232 -157 l 462 -157 l 462 -111 l 321 -111 l 418 -45 l 462 -45 l 462 0 z "},"․":{"ha":694,"x_min":129,"x_max":569,"o":"m 569 1136 l 569 -253 l 129 -253 l 129 1136 l 569 1136 m 462 1043 l 234 1043 l 234 997 l 323 997 l 323 946 l 232 946 l 232 900 l 462 900 l 462 946 l 371 946 l 371 997 l 462 997 l 462 1043 m 371 864 l 232 864 l 232 720 l 462 720 l 462 766 l 371 766 l 371 864 m 323 817 l 323 766 l 278 766 l 278 817 l 323 817 m 462 682 l 232 682 l 232 636 l 323 636 l 323 585 l 232 585 l 232 539 l 371 539 l 371 636 l 462 636 l 462 682 m 462 598 l 417 598 l 417 508 l 232 508 l 232 460 l 462 460 l 462 598 m 462 429 l 323 429 l 323 352 l 371 352 l 371 384 l 417 384 l 417 318 l 278 318 l 278 429 l 232 429 l 232 273 l 462 273 l 462 429 m 462 189 l 232 189 l 232 33 l 462 33 l 462 189 m 417 144 l 417 78 l 278 78 l 278 144 l 417 144 m 462 0 l 232 0 l 232 -45 l 330 -45 l 232 -111 l 232 -157 l 462 -157 l 462 -111 l 321 -111 l 418 -45 l 462 -45 l 462 0 z "},"‥":{"ha":694,"x_min":129,"x_max":569,"o":"m 569 1136 l 569 -253 l 129 -253 l 129 1136 l 569 1136 m 462 1043 l 234 1043 l 234 997 l 323 997 l 323 946 l 232 946 l 232 900 l 462 900 l 462 946 l 371 946 l 371 997 l 462 997 l 462 1043 m 371 864 l 232 864 l 232 720 l 462 720 l 462 766 l 371 766 l 371 864 m 323 817 l 323 766 l 278 766 l 278 817 l 323 817 m 462 682 l 232 682 l 232 636 l 323 636 l 323 585 l 232 585 l 232 539 l 371 539 l 371 636 l 462 636 l 462 682 m 462 598 l 417 598 l 417 508 l 232 508 l 232 460 l 462 460 l 462 598 m 462 429 l 323 429 l 323 352 l 371 352 l 371 384 l 417 384 l 417 318 l 278 318 l 278 429 l 232 429 l 232 273 l 462 273 l 462 429 m 462 189 l 232 189 l 232 33 l 462 33 l 462 189 m 417 144 l 417 78 l 278 78 l 278 144 l 417 144 m 462 0 l 232 0 l 232 -45 l 330 -45 l 232 -111 l 232 -157 l 462 -157 l 462 -111 l 321 -111 l 418 -45 l 462 -45 l 462 0 z "},"∓":{"ha":694,"x_min":129,"x_max":569,"o":"m 569 1136 l 569 -253 l 129 -253 l 129 1136 l 569 1136 m 462 1043 l 234 1043 l 234 997 l 323 997 l 323 946 l 232 946 l 232 900 l 462 900 l 462 946 l 371 946 l 371 997 l 462 997 l 462 1043 m 371 864 l 232 864 l 232 720 l 462 720 l 462 766 l 371 766 l 371 864 m 323 817 l 323 766 l 278 766 l 278 817 l 323 817 m 462 682 l 232 682 l 232 636 l 323 636 l 323 585 l 232 585 l 232 539 l 371 539 l 371 636 l 462 636 l 462 682 m 462 598 l 417 598 l 417 508 l 232 508 l 232 460 l 462 460 l 462 598 m 462 429 l 323 429 l 323 352 l 371 352 l 371 384 l 417 384 l 417 318 l 278 318 l 278 429 l 232 429 l 232 273 l 462 273 l 462 429 m 462 189 l 232 189 l 232 33 l 462 33 l 462 189 m 417 144 l 417 78 l 278 78 l 278 144 l 417 144 m 462 0 l 232 0 l 232 -45 l 330 -45 l 232 -111 l 232 -157 l 462 -157 l 462 -111 l 321 -111 l 418 -45 l 462 -45 l 462 0 z "},"∔":{"ha":694,"x_min":129,"x_max":569,"o":"m 569 1136 l 569 -253 l 129 -253 l 129 1136 l 569 1136 m 462 1043 l 234 1043 l 234 997 l 323 997 l 323 946 l 232 946 l 232 900 l 462 900 l 462 946 l 371 946 l 371 997 l 462 997 l 462 1043 m 371 864 l 232 864 l 232 720 l 462 720 l 462 766 l 371 766 l 371 864 m 323 817 l 323 766 l 278 766 l 278 817 l 323 817 m 462 682 l 232 682 l 232 636 l 323 636 l 323 585 l 232 585 l 232 539 l 371 539 l 371 636 l 462 636 l 462 682 m 462 598 l 417 598 l 417 508 l 232 508 l 232 460 l 462 460 l 462 598 m 462 429 l 323 429 l 323 352 l 371 352 l 371 384 l 417 384 l 417 318 l 278 318 l 278 429 l 232 429 l 232 273 l 462 273 l 462 429 m 462 189 l 232 189 l 232 33 l 462 33 l 462 189 m 417 144 l 417 78 l 278 78 l 278 144 l 417 144 m 462 0 l 232 0 l 232 -45 l 330 -45 l 232 -111 l 232 -157 l 462 -157 l 462 -111 l 321 -111 l 418 -45 l 462 -45 l 462 0 z "},"∖":{"ha":694,"x_min":129,"x_max":569,"o":"m 569 1136 l 569 -253 l 129 -253 l 129 1136 l 569 1136 m 462 1043 l 234 1043 l 234 997 l 323 997 l 323 946 l 232 946 l 232 900 l 462 900 l 462 946 l 371 946 l 371 997 l 462 997 l 462 1043 m 371 864 l 232 864 l 232 720 l 462 720 l 462 766 l 371 766 l 371 864 m 323 817 l 323 766 l 278 766 l 278 817 l 323 817 m 462 682 l 232 682 l 232 636 l 323 636 l 323 585 l 232 585 l 232 539 l 371 539 l 371 636 l 462 636 l 462 682 m 462 598 l 417 598 l 417 508 l 232 508 l 232 460 l 462 460 l 462 598 m 462 429 l 323 429 l 323 352 l 371 352 l 371 384 l 417 384 l 417 318 l 278 318 l 278 429 l 232 429 l 232 273 l 462 273 l 462 429 m 462 189 l 232 189 l 232 33 l 462 33 l 462 189 m 417 144 l 417 78 l 278 78 l 278 144 l 417 144 m 462 0 l 232 0 l 232 -45 l 330 -45 l 232 -111 l 232 -157 l 462 -157 l 462 -111 l 321 -111 l 418 -45 l 462 -45 l 462 0 z "},"∗":{"ha":694,"x_min":129,"x_max":569,"o":"m 569 1136 l 569 -253 l 129 -253 l 129 1136 l 569 1136 m 462 1043 l 234 1043 l 234 997 l 323 997 l 323 946 l 232 946 l 232 900 l 462 900 l 462 946 l 371 946 l 371 997 l 462 997 l 462 1043 m 371 864 l 232 864 l 232 720 l 462 720 l 462 766 l 371 766 l 371 864 m 323 817 l 323 766 l 278 766 l 278 817 l 323 817 m 462 682 l 232 682 l 232 636 l 323 636 l 323 585 l 232 585 l 232 539 l 371 539 l 371 636 l 462 636 l 462 682 m 462 598 l 417 598 l 417 508 l 232 508 l 232 460 l 462 460 l 462 598 m 462 429 l 323 429 l 323 352 l 371 352 l 371 384 l 417 384 l 417 318 l 278 318 l 278 429 l 232 429 l 232 273 l 462 273 l 462 429 m 462 189 l 232 189 l 232 33 l 462 33 l 462 189 m 417 144 l 417 78 l 278 78 l 278 144 l 417 144 m 462 0 l 232 0 l 232 -45 l 330 -45 l 232 -111 l 232 -157 l 462 -157 l 462 -111 l 321 -111 l 418 -45 l 462 -45 l 462 0 z "},"∘":{"ha":694,"x_min":129,"x_max":569,"o":"m 569 1136 l 569 -253 l 129 -253 l 129 1136 l 569 1136 m 462 1043 l 234 1043 l 234 997 l 323 997 l 323 946 l 232 946 l 232 900 l 462 900 l 462 946 l 371 946 l 371 997 l 462 997 l 462 1043 m 371 864 l 232 864 l 232 720 l 462 720 l 462 766 l 371 766 l 371 864 m 323 817 l 323 766 l 278 766 l 278 817 l 323 817 m 462 682 l 232 682 l 232 636 l 323 636 l 323 585 l 232 585 l 232 539 l 371 539 l 371 636 l 462 636 l 462 682 m 462 598 l 417 598 l 417 508 l 232 508 l 232 460 l 462 460 l 462 598 m 462 429 l 323 429 l 323 352 l 371 352 l 371 384 l 417 384 l 417 318 l 278 318 l 278 429 l 232 429 l 232 273 l 462 273 l 462 429 m 462 189 l 232 189 l 232 33 l 462 33 l 462 189 m 417 144 l 417 78 l 278 78 l 278 144 l 417 144 m 462 0 l 232 0 l 232 -45 l 330 -45 l 232 -111 l 232 -157 l 462 -157 l 462 -111 l 321 -111 l 418 -45 l 462 -45 l 462 0 z "},"≡":{"ha":694,"x_min":129,"x_max":569,"o":"m 569 1136 l 569 -253 l 129 -253 l 129 1136 l 569 1136 m 462 1043 l 234 1043 l 234 997 l 323 997 l 323 946 l 232 946 l 232 900 l 462 900 l 462 946 l 371 946 l 371 997 l 462 997 l 462 1043 m 371 864 l 232 864 l 232 720 l 462 720 l 462 766 l 371 766 l 371 864 m 323 817 l 323 766 l 278 766 l 278 817 l 323 817 m 462 682 l 232 682 l 232 636 l 323 636 l 323 585 l 232 585 l 232 539 l 371 539 l 371 636 l 462 636 l 462 682 m 462 598 l 417 598 l 417 508 l 232 508 l 232 460 l 462 460 l 462 598 m 462 429 l 323 429 l 323 352 l 371 352 l 371 384 l 417 384 l 417 318 l 278 318 l 278 429 l 232 429 l 232 273 l 462 273 l 462 429 m 462 189 l 232 189 l 232 33 l 462 33 l 462 189 m 417 144 l 417 78 l 278 78 l 278 144 l 417 144 m 462 0 l 232 0 l 232 -45 l 330 -45 l 232 -111 l 232 -157 l 462 -157 l 462 -111 l 321 -111 l 418 -45 l 462 -45 l 462 0 z "},"≢":{"ha":694,"x_min":129,"x_max":569,"o":"m 569 1136 l 569 -253 l 129 -253 l 129 1136 l 569 1136 m 462 1043 l 234 1043 l 234 997 l 323 997 l 323 946 l 232 946 l 232 900 l 462 900 l 462 946 l 371 946 l 371 997 l 462 997 l 462 1043 m 371 864 l 232 864 l 232 720 l 462 720 l 462 766 l 371 766 l 371 864 m 323 817 l 323 766 l 278 766 l 278 817 l 323 817 m 462 682 l 232 682 l 232 636 l 323 636 l 323 585 l 232 585 l 232 539 l 371 539 l 371 636 l 462 636 l 462 682 m 462 598 l 417 598 l 417 508 l 232 508 l 232 460 l 462 460 l 462 598 m 462 429 l 323 429 l 323 352 l 371 352 l 371 384 l 417 384 l 417 318 l 278 318 l 278 429 l 232 429 l 232 273 l 462 273 l 462 429 m 462 189 l 232 189 l 232 33 l 462 33 l 462 189 m 417 144 l 417 78 l 278 78 l 278 144 l 417 144 m 462 0 l 232 0 l 232 -45 l 330 -45 l 232 -111 l 232 -157 l 462 -157 l 462 -111 l 321 -111 l 418 -45 l 462 -45 l 462 0 z "},"≣":{"ha":694,"x_min":129,"x_max":569,"o":"m 569 1136 l 569 -253 l 129 -253 l 129 1136 l 569 1136 m 462 1043 l 234 1043 l 234 997 l 323 997 l 323 946 l 232 946 l 232 900 l 462 900 l 462 946 l 371 946 l 371 997 l 462 997 l 462 1043 m 371 864 l 232 864 l 232 720 l 462 720 l 462 766 l 371 766 l 371 864 m 323 817 l 323 766 l 278 766 l 278 817 l 323 817 m 462 682 l 232 682 l 232 636 l 323 636 l 323 585 l 232 585 l 232 539 l 371 539 l 371 636 l 462 636 l 462 682 m 462 598 l 417 598 l 417 508 l 232 508 l 232 460 l 462 460 l 462 598 m 462 429 l 323 429 l 323 352 l 371 352 l 371 384 l 417 384 l 417 318 l 278 318 l 278 429 l 232 429 l 232 273 l 462 273 l 462 429 m 462 189 l 232 189 l 232 33 l 462 33 l 462 189 m 417 144 l 417 78 l 278 78 l 278 144 l 417 144 m 462 0 l 232 0 l 232 -45 l 330 -45 l 232 -111 l 232 -157 l 462 -157 l 462 -111 l 321 -111 l 418 -45 l 462 -45 l 462 0 z "}," ":{"ha":347,"x_min":0,"x_max":0,"o":""},"!":{"ha":335,"x_min":63,"x_max":271,"o":"m 63 884 l 271 884 l 271 354 l 265 259 l 69 259 l 63 354 l 63 884 m 63 183 l 271 183 l 271 0 l 63 0 l 63 183 z "},"\"":{"ha":556,"x_min":32,"x_max":524,"o":"m 32 884 l 253 884 l 227 600 l 57 600 l 32 884 m 303 884 l 524 884 l 499 600 l 328 600 l 303 884 z "},"#":{"ha":816,"x_min":51,"x_max":765,"o":"m 51 208 l 51 366 l 145 366 l 145 518 l 51 518 l 51 676 l 145 676 l 145 808 l 328 808 l 328 676 l 486 676 l 486 808 l 670 808 l 670 676 l 765 676 l 765 518 l 670 518 l 670 366 l 765 366 l 765 208 l 670 208 l 670 76 l 486 76 l 486 208 l 328 208 l 328 76 l 145 76 l 145 208 l 51 208 m 328 366 l 486 366 l 486 518 l 328 518 l 328 366 z "},"$":{"ha":625,"x_min":57,"x_max":593,"o":"m 436 528 q 543 490 505 528 q 581 383 581 452 l 581 240 q 543 132 581 169 q 436 95 505 95 l 410 95 l 410 0 l 227 0 l 227 95 l 145 95 l 57 253 l 371 253 q 398 279 398 253 l 398 343 q 371 370 398 370 l 202 370 q 94 407 131 370 q 57 515 57 444 l 57 644 q 94 752 57 715 q 202 789 131 789 l 227 789 l 227 884 l 410 884 l 410 789 l 593 789 l 505 631 l 266 631 q 240 605 240 631 l 240 554 q 266 528 240 528 l 436 528 z "},"%":{"ha":1057,"x_min":51,"x_max":1006,"o":"m 148 379 q 51 476 51 379 l 51 787 q 148 884 51 884 l 301 884 q 398 787 398 884 l 398 476 q 301 379 398 379 l 148 379 m 670 884 l 809 884 l 386 0 l 247 0 l 670 884 m 170 504 q 188 486 170 486 l 260 486 q 278 504 278 486 l 278 759 q 260 777 278 777 l 188 777 q 170 759 170 777 l 170 504 m 756 0 q 659 97 659 0 l 659 408 q 756 505 659 505 l 909 505 q 1006 408 1006 505 l 1006 97 q 909 0 1006 0 l 756 0 m 779 125 q 797 107 779 107 l 869 107 q 886 125 886 107 l 886 380 q 869 398 886 398 l 797 398 q 779 380 779 398 l 779 125 z "},"&":{"ha":770,"x_min":63,"x_max":758,"o":"m 234 0 q 107 44 152 0 q 63 170 63 88 l 63 371 l 143 451 l 63 530 l 63 713 q 107 840 63 795 q 234 884 152 884 l 676 884 l 574 701 l 303 701 q 271 669 271 701 l 271 574 q 303 543 271 543 l 758 543 l 663 370 l 663 0 l 234 0 m 271 215 q 303 183 271 183 l 455 183 l 455 360 l 303 360 q 271 328 271 360 l 271 215 z "},"'":{"ha":284,"x_min":32,"x_max":253,"o":"m 32 884 l 253 884 l 227 600 l 57 600 l 32 884 z "},"(":{"ha":391,"x_min":63,"x_max":347,"o":"m 347 789 l 279 789 q 253 763 253 789 l 253 121 q 279 95 253 95 l 347 95 l 347 -63 l 208 -63 q 101 -25 139 -63 q 63 82 63 13 l 63 802 q 101 909 63 871 q 208 947 139 947 l 347 947 l 347 789 z "},")":{"ha":391,"x_min":44,"x_max":328,"o":"m 44 789 l 44 947 l 183 947 q 290 909 253 947 q 328 802 328 871 l 328 82 q 290 -25 328 13 q 183 -63 253 -63 l 44 -63 l 44 95 l 112 95 q 139 121 139 95 l 139 763 q 112 789 139 789 l 44 789 z "},"*":{"ha":525,"x_min":32,"x_max":494,"o":"m 494 648 l 360 638 l 463 551 l 314 443 l 261 568 l 208 442 l 59 549 l 163 638 l 32 648 l 86 823 l 201 753 l 172 884 l 354 884 l 323 753 l 438 823 l 494 648 z "},"+":{"ha":556,"x_min":38,"x_max":518,"o":"m 518 528 l 518 383 l 354 383 l 354 218 l 202 218 l 202 383 l 38 383 l 38 528 l 202 528 l 202 692 l 354 692 l 354 528 l 518 528 z "},",":{"ha":271,"x_min":32,"x_max":240,"o":"m 32 0 l 32 183 l 240 183 l 240 0 q 139 -101 240 -101 l 139 0 l 32 0 z "},"-":{"ha":436,"x_min":44,"x_max":391,"o":"m 44 534 l 391 534 l 391 376 l 44 376 l 44 534 z "},".":{"ha":271,"x_min":32,"x_max":240,"o":"m 32 183 l 240 183 l 240 0 l 32 0 l 32 183 z "},"/":{"ha":492,"x_min":0,"x_max":492,"o":"m 309 1010 l 492 1010 l 183 -126 l 0 -126 l 309 1010 z "},":":{"ha":335,"x_min":63,"x_max":271,"o":"m 63 669 l 271 669 l 271 486 l 63 486 l 63 669 m 63 372 l 271 372 l 271 189 l 63 189 l 63 372 z "},";":{"ha":335,"x_min":63,"x_max":271,"o":"m 63 480 l 271 480 l 271 297 l 63 297 l 63 480 m 63 0 l 63 183 l 271 183 l 271 0 q 170 -101 271 -101 l 170 0 l 63 0 z "},"<":{"ha":486,"x_min":44,"x_max":423,"o":"m 44 374 l 44 538 l 423 708 l 423 544 l 202 456 l 423 367 l 423 203 l 44 374 z "},"=":{"ha":436,"x_min":44,"x_max":391,"o":"m 44 648 l 386 648 l 386 503 l 44 503 l 44 648 m 44 408 l 391 408 l 391 260 l 44 263 l 44 408 z "},">":{"ha":486,"x_min":63,"x_max":442,"o":"m 442 374 l 63 203 l 63 367 l 284 456 l 63 544 l 63 708 l 442 538 l 442 374 z "},"?":{"ha":676,"x_min":32,"x_max":631,"o":"m 32 614 l 32 720 q 76 846 32 802 q 202 890 120 890 l 461 890 q 587 846 543 890 q 631 720 631 802 l 631 499 q 593 391 631 429 q 486 354 556 354 l 410 354 l 404 259 l 208 259 l 202 354 l 202 413 q 234 504 202 472 q 326 537 266 537 l 391 537 q 423 568 423 537 l 423 676 q 391 707 423 707 l 271 707 q 240 676 240 707 l 240 614 l 32 614 m 202 183 l 410 183 l 410 0 l 202 0 l 202 183 z "},"@":{"ha":1048,"x_min":63,"x_max":985,"o":"m 63 115 l 63 768 q 93 854 63 823 q 179 884 124 884 l 869 884 q 955 853 924 884 q 985 766 985 822 l 985 306 q 955 220 985 250 q 869 189 924 189 l 718 189 l 665 244 l 610 189 l 426 189 q 340 220 370 189 q 309 306 309 250 l 309 578 q 340 664 309 634 q 426 694 370 694 l 739 694 l 739 337 q 760 316 739 316 l 812 316 q 833 337 833 316 l 833 736 q 812 758 833 758 l 236 758 q 215 736 215 758 l 215 148 q 236 126 215 126 l 985 126 l 915 0 l 178 0 q 63 115 63 0 m 461 337 q 482 316 461 316 l 566 316 q 587 337 587 316 l 587 568 l 482 568 q 461 547 461 568 l 461 337 z "},"A":{"ha":760,"x_min":28,"x_max":735,"o":"m 520 0 l 485 183 l 278 183 l 242 0 l 28 0 l 220 789 l 176 884 l 520 884 l 735 0 l 520 0 m 313 366 l 449 366 l 385 701 l 378 701 l 313 366 z "},"B":{"ha":745,"x_min":38,"x_max":682,"o":"m 682 713 l 682 530 l 602 451 l 682 371 l 682 170 q 638 44 682 88 q 511 0 593 0 l 82 0 l 82 789 l 38 884 l 511 884 q 638 840 593 884 q 682 713 682 795 m 473 574 l 473 669 q 442 701 473 701 l 290 701 l 290 543 l 442 543 q 473 574 473 543 m 473 215 l 473 328 q 442 360 473 360 l 290 360 l 290 183 l 442 183 q 473 215 473 183 z "},"C":{"ha":720,"x_min":63,"x_max":663,"o":"m 234 -6 q 107 38 152 -6 q 63 164 63 82 l 63 720 q 107 846 63 802 q 234 890 152 890 l 492 890 q 619 846 574 890 q 663 720 663 802 l 663 556 l 455 556 l 455 676 q 423 707 455 707 l 303 707 q 271 676 271 707 l 271 208 q 303 177 271 177 l 423 177 q 455 208 455 177 l 455 346 l 663 346 l 663 164 q 619 38 663 82 q 492 -6 574 -6 l 234 -6 z "},"D":{"ha":745,"x_min":38,"x_max":682,"o":"m 511 884 q 638 840 593 884 q 682 713 682 795 l 682 170 q 638 44 682 88 q 511 0 593 0 l 82 0 l 82 789 l 38 884 l 511 884 m 473 215 l 473 669 q 442 701 473 701 l 290 701 l 290 183 l 442 183 q 473 215 473 183 z "},"E":{"ha":657,"x_min":38,"x_max":644,"o":"m 290 360 l 290 183 l 644 183 l 543 0 l 82 0 l 82 789 l 38 884 l 644 884 l 543 701 l 290 701 l 290 543 l 581 543 l 480 360 l 290 360 z "},"F":{"ha":657,"x_min":38,"x_max":644,"o":"m 290 701 l 290 543 l 581 543 l 480 360 l 290 360 l 290 0 l 82 0 l 82 789 l 38 884 l 644 884 l 543 701 l 290 701 z "},"G":{"ha":726,"x_min":63,"x_max":676,"o":"m 234 0 q 107 44 152 0 q 63 170 63 88 l 63 713 q 107 840 63 795 q 234 884 152 884 l 676 884 l 574 701 l 303 701 q 271 669 271 701 l 271 215 q 303 183 271 183 l 455 183 l 455 543 l 663 543 l 663 0 l 234 0 z "},"H":{"ha":751,"x_min":38,"x_max":682,"o":"m 473 884 l 682 884 l 682 0 l 473 0 l 473 365 l 290 365 l 290 0 l 82 0 l 82 789 l 38 884 l 290 884 l 290 548 l 473 548 l 473 884 z "},"I":{"ha":360,"x_min":38,"x_max":290,"o":"m 290 884 l 290 0 l 82 0 l 82 789 l 38 884 l 290 884 z "},"J":{"ha":476,"x_min":19,"x_max":410,"o":"m 410 884 l 410 170 q 366 44 410 88 q 240 0 322 0 l 120 0 l 19 183 l 170 183 q 202 215 202 183 l 202 789 l 158 884 l 410 884 z "},"K":{"ha":758,"x_min":38,"x_max":739,"o":"m 739 884 l 554 456 l 739 0 l 511 0 l 365 360 l 290 360 l 290 0 l 82 0 l 82 789 l 38 884 l 290 884 l 290 543 l 365 543 l 511 884 l 739 884 z "},"L":{"ha":593,"x_min":69,"x_max":574,"o":"m 278 183 l 574 183 l 473 0 l 69 0 l 69 884 l 278 884 l 278 183 z "},"M":{"ha":960,"x_min":38,"x_max":890,"o":"m 676 884 l 890 884 l 890 0 l 682 0 l 682 518 l 486 167 l 290 518 l 290 0 l 82 0 l 82 789 l 38 884 l 297 884 l 486 533 l 676 884 z "},"N":{"ha":783,"x_min":38,"x_max":713,"o":"m 505 884 l 713 884 l 713 0 l 518 0 l 290 457 l 290 0 l 82 0 l 82 789 l 38 884 l 278 884 l 505 427 l 505 884 z "},"O":{"ha":726,"x_min":63,"x_max":663,"o":"m 234 -6 q 107 38 152 -6 q 63 164 63 82 l 63 720 q 107 846 63 802 q 234 890 152 890 l 492 890 q 619 846 574 890 q 663 720 663 802 l 663 164 q 619 38 663 82 q 492 -6 574 -6 l 234 -6 m 271 208 q 303 177 271 177 l 423 177 q 455 208 455 177 l 455 676 q 423 707 455 707 l 303 707 q 271 676 271 707 l 271 208 z "},"P":{"ha":726,"x_min":38,"x_max":682,"o":"m 511 884 q 638 840 593 884 q 682 713 682 795 l 682 444 q 638 318 682 362 q 511 274 593 274 l 290 274 l 290 0 l 82 0 l 82 789 l 38 884 l 511 884 m 473 489 l 473 669 q 442 701 473 701 l 290 701 l 290 457 l 442 457 q 473 489 473 457 z "},"Q":{"ha":726,"x_min":63,"x_max":663,"o":"m 492 890 q 619 846 574 890 q 663 720 663 802 l 663 164 q 543 -1 663 24 l 593 -95 l 385 -95 l 337 -6 l 234 -6 q 107 38 152 -6 q 63 164 63 82 l 63 720 q 107 846 63 802 q 234 890 152 890 l 492 890 m 271 208 q 303 177 271 177 l 423 177 q 455 208 455 177 l 455 676 q 423 707 455 707 l 303 707 q 271 676 271 707 l 271 208 z "},"R":{"ha":739,"x_min":38,"x_max":694,"o":"m 694 0 l 480 0 l 385 274 l 290 274 l 290 0 l 82 0 l 82 789 l 38 884 l 511 884 q 638 840 593 884 q 682 713 682 795 l 682 444 q 595 289 682 326 l 694 0 m 290 457 l 442 457 q 473 489 473 457 l 473 669 q 442 701 473 701 l 290 701 l 290 457 z "},"S":{"ha":713,"x_min":57,"x_max":663,"o":"m 57 164 l 57 282 l 265 282 l 265 208 q 297 177 265 177 l 423 177 q 455 208 455 177 l 455 307 q 427 342 455 336 l 207 391 q 57 578 57 426 l 57 720 q 101 846 57 802 q 227 890 145 890 l 486 890 q 612 846 568 890 q 657 720 657 802 l 657 614 l 448 614 l 448 676 q 417 707 448 707 l 297 707 q 265 676 265 707 l 265 595 q 293 559 265 566 l 513 510 q 663 323 663 476 l 663 164 q 619 38 663 82 q 492 -6 574 -6 l 227 -6 q 101 38 145 -6 q 57 164 57 82 z "},"T":{"ha":650,"x_min":25,"x_max":625,"o":"m 25 701 l 25 884 l 625 884 l 625 701 l 429 701 l 429 0 l 221 0 l 221 701 l 25 701 z "},"U":{"ha":747,"x_min":34,"x_max":678,"o":"m 470 884 l 678 884 l 678 0 l 249 0 q 122 44 167 0 q 78 170 78 88 l 78 789 l 34 884 l 287 884 l 287 215 q 318 183 287 183 l 470 183 l 470 884 z "},"V":{"ha":745,"x_min":19,"x_max":726,"o":"m 19 884 l 240 884 l 372 280 l 505 884 l 726 884 l 492 0 l 253 0 l 19 884 z "},"W":{"ha":1124,"x_min":32,"x_max":1092,"o":"m 32 884 l 253 884 l 360 332 l 470 884 l 653 884 l 764 332 l 871 884 l 1092 884 l 888 0 l 673 0 l 561 503 l 449 0 l 235 0 l 32 884 z "},"X":{"ha":707,"x_min":19,"x_max":688,"o":"m 688 884 l 495 442 l 688 0 l 467 0 l 354 293 l 240 0 l 19 0 l 213 442 l 19 884 l 240 884 l 354 592 l 467 884 l 688 884 z "},"Y":{"ha":707,"x_min":0,"x_max":707,"o":"m 0 884 l 221 884 l 355 528 l 486 884 l 707 884 l 458 299 l 458 0 l 250 0 l 250 299 l 0 884 z "},"Z":{"ha":663,"x_min":44,"x_max":631,"o":"m 619 884 l 619 701 l 284 183 l 631 183 l 530 0 l 44 0 l 44 183 l 379 701 l 44 701 l 44 884 l 619 884 z "},"[":{"ha":391,"x_min":63,"x_max":347,"o":"m 63 -63 l 63 947 l 347 947 l 347 789 l 253 789 l 253 95 l 347 95 l 347 -63 l 63 -63 z "},"\\":{"ha":492,"x_min":0,"x_max":492,"o":"m 309 -126 l 0 1010 l 183 1010 l 492 -126 l 309 -126 z "},"]":{"ha":391,"x_min":44,"x_max":328,"o":"m 328 -63 l 44 -63 l 44 95 l 139 95 l 139 789 l 44 789 l 44 947 l 328 947 l 328 -63 z "},"^":{"ha":557,"x_min":25,"x_max":532,"o":"m 360 884 l 532 505 l 366 505 l 278 726 l 191 505 l 25 505 l 196 884 l 360 884 z "},"_":{"ha":568,"x_min":32,"x_max":537,"o":"m 32 -25 l 537 -25 l 537 -158 l 32 -158 l 32 -25 z "},"`":{"ha":303,"x_min":32,"x_max":271,"o":"m 32 1136 l 215 1136 l 271 953 l 133 953 l 32 1136 z "},"a":{"ha":760,"x_min":28,"x_max":735,"o":"m 520 0 l 485 183 l 278 183 l 242 0 l 28 0 l 220 789 l 176 884 l 520 884 l 735 0 l 520 0 m 313 366 l 449 366 l 385 701 l 378 701 l 313 366 z "},"b":{"ha":745,"x_min":38,"x_max":682,"o":"m 682 713 l 682 530 l 602 451 l 682 371 l 682 170 q 638 44 682 88 q 511 0 593 0 l 82 0 l 82 789 l 38 884 l 511 884 q 638 840 593 884 q 682 713 682 795 m 473 574 l 473 669 q 442 701 473 701 l 290 701 l 290 543 l 442 543 q 473 574 473 543 m 473 215 l 473 328 q 442 360 473 360 l 290 360 l 290 183 l 442 183 q 473 215 473 183 z "},"c":{"ha":720,"x_min":63,"x_max":663,"o":"m 234 -6 q 107 38 152 -6 q 63 164 63 82 l 63 720 q 107 846 63 802 q 234 890 152 890 l 492 890 q 619 846 574 890 q 663 720 663 802 l 663 556 l 455 556 l 455 676 q 423 707 455 707 l 303 707 q 271 676 271 707 l 271 208 q 303 177 271 177 l 423 177 q 455 208 455 177 l 455 346 l 663 346 l 663 164 q 619 38 663 82 q 492 -6 574 -6 l 234 -6 z "},"d":{"ha":745,"x_min":38,"x_max":682,"o":"m 511 884 q 638 840 593 884 q 682 713 682 795 l 682 170 q 638 44 682 88 q 511 0 593 0 l 82 0 l 82 789 l 38 884 l 511 884 m 473 215 l 473 669 q 442 701 473 701 l 290 701 l 290 183 l 442 183 q 473 215 473 183 z "},"e":{"ha":657,"x_min":38,"x_max":644,"o":"m 290 360 l 290 183 l 644 183 l 543 0 l 82 0 l 82 789 l 38 884 l 644 884 l 543 701 l 290 701 l 290 543 l 581 543 l 480 360 l 290 360 z "},"f":{"ha":657,"x_min":38,"x_max":644,"o":"m 290 701 l 290 543 l 581 543 l 480 360 l 290 360 l 290 0 l 82 0 l 82 789 l 38 884 l 644 884 l 543 701 l 290 701 z "},"g":{"ha":726,"x_min":63,"x_max":676,"o":"m 234 0 q 107 44 152 0 q 63 170 63 88 l 63 713 q 107 840 63 795 q 234 884 152 884 l 676 884 l 574 701 l 303 701 q 271 669 271 701 l 271 215 q 303 183 271 183 l 455 183 l 455 543 l 663 543 l 663 0 l 234 0 z "},"h":{"ha":751,"x_min":38,"x_max":682,"o":"m 473 884 l 682 884 l 682 0 l 473 0 l 473 365 l 290 365 l 290 0 l 82 0 l 82 789 l 38 884 l 290 884 l 290 548 l 473 548 l 473 884 z "},"i":{"ha":360,"x_min":38,"x_max":290,"o":"m 290 884 l 290 0 l 82 0 l 82 789 l 38 884 l 290 884 z "},"j":{"ha":476,"x_min":19,"x_max":410,"o":"m 410 884 l 410 170 q 366 44 410 88 q 240 0 322 0 l 120 0 l 19 183 l 170 183 q 202 215 202 183 l 202 789 l 158 884 l 410 884 z "},"k":{"ha":758,"x_min":38,"x_max":739,"o":"m 739 884 l 554 456 l 739 0 l 511 0 l 365 360 l 290 360 l 290 0 l 82 0 l 82 789 l 38 884 l 290 884 l 290 543 l 365 543 l 511 884 l 739 884 z "},"l":{"ha":593,"x_min":69,"x_max":574,"o":"m 278 183 l 574 183 l 473 0 l 69 0 l 69 884 l 278 884 l 278 183 z "},"m":{"ha":960,"x_min":38,"x_max":890,"o":"m 676 884 l 890 884 l 890 0 l 682 0 l 682 518 l 486 167 l 290 518 l 290 0 l 82 0 l 82 789 l 38 884 l 297 884 l 486 533 l 676 884 z "},"n":{"ha":783,"x_min":38,"x_max":713,"o":"m 505 884 l 713 884 l 713 0 l 518 0 l 290 457 l 290 0 l 82 0 l 82 789 l 38 884 l 278 884 l 505 427 l 505 884 z "},"o":{"ha":726,"x_min":63,"x_max":663,"o":"m 234 -6 q 107 38 152 -6 q 63 164 63 82 l 63 720 q 107 846 63 802 q 234 890 152 890 l 492 890 q 619 846 574 890 q 663 720 663 802 l 663 164 q 619 38 663 82 q 492 -6 574 -6 l 234 -6 m 271 208 q 303 177 271 177 l 423 177 q 455 208 455 177 l 455 676 q 423 707 455 707 l 303 707 q 271 676 271 707 l 271 208 z "},"p":{"ha":726,"x_min":38,"x_max":682,"o":"m 511 884 q 638 840 593 884 q 682 713 682 795 l 682 444 q 638 318 682 362 q 511 274 593 274 l 290 274 l 290 0 l 82 0 l 82 789 l 38 884 l 511 884 m 473 489 l 473 669 q 442 701 473 701 l 290 701 l 290 457 l 442 457 q 473 489 473 457 z "},"q":{"ha":726,"x_min":63,"x_max":663,"o":"m 492 890 q 619 846 574 890 q 663 720 663 802 l 663 164 q 543 -1 663 24 l 593 -95 l 385 -95 l 337 -6 l 234 -6 q 107 38 152 -6 q 63 164 63 82 l 63 720 q 107 846 63 802 q 234 890 152 890 l 492 890 m 271 208 q 303 177 271 177 l 423 177 q 455 208 455 177 l 455 676 q 423 707 455 707 l 303 707 q 271 676 271 707 l 271 208 z "},"r":{"ha":739,"x_min":38,"x_max":694,"o":"m 694 0 l 480 0 l 385 274 l 290 274 l 290 0 l 82 0 l 82 789 l 38 884 l 511 884 q 638 840 593 884 q 682 713 682 795 l 682 444 q 595 289 682 326 l 694 0 m 290 457 l 442 457 q 473 489 473 457 l 473 669 q 442 701 473 701 l 290 701 l 290 457 z "},"s":{"ha":713,"x_min":57,"x_max":663,"o":"m 57 164 l 57 282 l 265 282 l 265 208 q 297 177 265 177 l 423 177 q 455 208 455 177 l 455 307 q 427 342 455 336 l 207 391 q 57 578 57 426 l 57 720 q 101 846 57 802 q 227 890 145 890 l 486 890 q 612 846 568 890 q 657 720 657 802 l 657 614 l 448 614 l 448 676 q 417 707 448 707 l 297 707 q 265 676 265 707 l 265 595 q 293 559 265 566 l 513 510 q 663 323 663 476 l 663 164 q 619 38 663 82 q 492 -6 574 -6 l 227 -6 q 101 38 145 -6 q 57 164 57 82 z "},"t":{"ha":650,"x_min":25,"x_max":625,"o":"m 25 701 l 25 884 l 625 884 l 625 701 l 429 701 l 429 0 l 221 0 l 221 701 l 25 701 z "},"u":{"ha":747,"x_min":34,"x_max":678,"o":"m 470 884 l 678 884 l 678 0 l 249 0 q 122 44 167 0 q 78 170 78 88 l 78 789 l 34 884 l 287 884 l 287 215 q 318 183 287 183 l 470 183 l 470 884 z "},"v":{"ha":745,"x_min":19,"x_max":726,"o":"m 19 884 l 240 884 l 372 280 l 505 884 l 726 884 l 492 0 l 253 0 l 19 884 z "},"w":{"ha":1124,"x_min":32,"x_max":1092,"o":"m 32 884 l 253 884 l 360 332 l 470 884 l 653 884 l 764 332 l 871 884 l 1092 884 l 888 0 l 673 0 l 561 503 l 449 0 l 235 0 l 32 884 z "},"x":{"ha":707,"x_min":19,"x_max":688,"o":"m 688 884 l 495 442 l 688 0 l 467 0 l 354 293 l 240 0 l 19 0 l 213 442 l 19 884 l 240 884 l 354 592 l 467 884 l 688 884 z "},"y":{"ha":707,"x_min":0,"x_max":707,"o":"m 0 884 l 221 884 l 355 528 l 486 884 l 707 884 l 458 299 l 458 0 l 250 0 l 250 299 l 0 884 z "},"z":{"ha":663,"x_min":44,"x_max":631,"o":"m 619 884 l 619 701 l 284 183 l 631 183 l 530 0 l 44 0 l 44 183 l 379 701 l 44 701 l 44 884 l 619 884 z "},"{":{"ha":467,"x_min":44,"x_max":423,"o":"m 284 -63 q 177 -25 215 -63 q 139 82 139 13 l 139 351 q 112 378 139 378 l 44 378 l 44 535 l 112 535 q 139 562 139 535 l 139 802 q 177 909 139 871 q 284 947 215 947 l 423 947 l 423 789 l 355 789 q 328 763 328 789 l 328 525 l 260 457 l 328 389 l 328 121 q 355 95 328 95 l 423 95 l 423 -63 l 284 -63 z "},"|":{"ha":372,"x_min":95,"x_max":278,"o":"m 95 -126 l 95 1010 l 278 1010 l 278 -126 l 95 -126 z "},"}":{"ha":467,"x_min":44,"x_max":423,"o":"m 183 -63 l 44 -63 l 44 95 l 112 95 q 139 121 139 95 l 139 389 l 207 457 l 139 525 l 139 763 q 112 789 139 789 l 44 789 l 44 947 l 183 947 q 290 909 253 947 q 328 802 328 871 l 328 562 q 355 535 328 535 l 423 535 l 423 378 l 355 378 q 328 351 328 378 l 328 82 q 290 -25 328 13 q 183 -63 253 -63 z "},"~":{"ha":499,"x_min":44,"x_max":455,"o":"m 354 548 l 455 548 l 455 460 q 430 390 455 414 q 360 365 405 365 l 288 365 l 149 466 l 145 466 l 145 365 l 44 365 l 44 453 q 69 523 44 499 q 139 548 93 548 l 211 548 l 350 447 l 354 447 l 354 548 z "},"¡":{"ha":309,"x_min":51,"x_max":259,"o":"m 259 448 l 51 448 l 51 631 l 259 631 l 259 448 m 259 -253 l 51 -253 l 51 278 l 57 372 l 253 372 l 259 278 l 259 -253 z "},"¢":{"ha":644,"x_min":63,"x_max":587,"o":"m 587 532 l 404 532 l 404 605 q 378 631 404 631 l 273 631 q 246 605 246 631 l 246 279 q 273 253 246 253 l 378 253 q 404 279 404 253 l 404 366 l 587 366 l 587 240 q 550 132 587 169 q 442 95 513 95 l 417 95 l 417 0 l 234 0 l 234 95 l 208 95 q 101 132 139 95 q 63 240 63 169 l 63 644 q 101 752 63 715 q 208 789 139 789 l 234 789 l 234 884 l 417 884 l 417 789 l 442 789 q 550 752 513 789 q 587 644 587 715 l 587 532 z "},"£":{"ha":770,"x_min":25,"x_max":732,"o":"m 328 183 l 732 183 l 631 0 l 126 0 l 25 183 l 120 183 l 120 331 l 39 476 l 120 476 l 120 720 q 164 846 120 802 q 290 890 208 890 l 549 890 q 676 846 631 890 q 720 720 720 802 l 720 614 l 511 614 l 511 676 q 480 707 511 707 l 360 707 q 328 676 328 707 l 328 476 l 639 476 l 558 331 l 328 331 l 328 183 z "},"¤":{"ha":760,"x_min":32,"x_max":729,"o":"m 679 347 l 631 299 l 698 232 l 597 131 l 530 198 l 482 150 q 380 101 433 101 q 278 150 327 101 l 230 198 l 163 131 l 62 232 l 129 299 l 81 347 q 32 449 32 396 q 81 552 32 503 l 129 600 l 62 667 l 163 768 l 230 701 l 278 749 q 380 798 327 798 q 482 749 433 798 l 530 701 l 597 768 l 698 667 l 631 600 l 679 552 q 729 449 729 503 q 679 347 729 396 m 399 298 l 532 431 q 532 468 551 449 l 399 601 q 361 601 380 620 l 229 468 q 229 431 210 449 l 361 298 q 399 298 380 279 z "},"¥":{"ha":745,"x_min":19,"x_max":726,"o":"m 726 884 l 510 375 l 653 375 l 572 230 l 477 230 l 477 0 l 269 0 l 269 230 l 174 230 l 93 375 l 236 375 l 19 884 l 240 884 l 374 528 l 505 884 l 726 884 z "},"¦":{"ha":372,"x_min":95,"x_max":278,"o":"m 95 499 l 95 1010 l 278 1010 l 278 499 l 95 499 m 278 404 l 278 -126 l 95 -126 l 95 404 l 278 404 z "},"§":{"ha":715,"x_min":57,"x_max":664,"o":"m 57 307 l 57 372 l 136 452 l 57 532 l 57 720 q 101 846 57 802 q 227 890 145 890 l 486 890 q 612 846 568 890 q 657 720 657 802 l 657 614 l 448 614 l 448 676 q 417 707 448 707 l 297 707 q 265 676 265 707 l 265 614 q 293 578 265 585 l 514 529 q 664 342 664 495 l 664 277 l 585 197 l 664 117 l 664 -82 q 620 -208 664 -164 q 494 -253 576 -253 l 229 -253 q 102 -208 146 -253 q 58 -82 58 -164 l 58 29 l 266 29 l 266 -38 q 298 -69 266 -69 l 424 -69 q 456 -38 456 -69 l 456 35 q 428 71 456 64 l 207 120 q 57 307 57 154 m 265 322 q 293 288 265 294 l 456 251 l 456 327 q 428 361 456 355 l 265 398 l 265 322 z "},"¨":{"ha":492,"x_min":32,"x_max":461,"o":"m 32 1136 l 208 1136 l 208 979 l 32 979 l 32 1136 m 284 1136 l 461 1136 l 461 979 l 284 979 l 284 1136 z "},"©":{"ha":1048,"x_min":63,"x_max":985,"o":"m 63 115 l 63 768 q 93 854 63 823 q 179 884 124 884 l 869 884 q 955 853 924 884 q 985 766 985 822 l 985 116 q 955 30 985 61 q 869 0 924 0 l 178 0 q 63 115 63 0 m 215 148 q 236 126 215 126 l 812 126 q 833 148 833 126 l 833 736 q 812 758 833 758 l 236 758 q 215 736 215 758 l 215 148 m 739 388 l 739 306 q 708 220 739 250 q 622 189 678 189 l 426 189 q 340 220 370 189 q 309 306 309 250 l 309 578 q 340 664 309 634 q 426 694 370 694 l 622 694 q 708 664 678 694 q 739 578 739 634 l 739 506 l 587 506 l 587 547 q 566 568 587 568 l 482 568 q 461 547 461 568 l 461 337 q 482 316 461 316 l 566 316 q 587 337 587 316 l 587 388 l 739 388 z "},"ª":{"ha":448,"x_min":44,"x_max":398,"o":"m 44 884 l 301 884 q 398 787 398 884 l 398 379 l 148 379 q 51 476 51 379 l 51 614 q 76 686 51 660 q 148 711 101 711 l 278 711 l 278 759 q 259 777 278 777 l 102 777 l 44 884 m 170 504 q 188 486 170 486 l 278 486 l 278 604 l 188 604 q 170 586 170 604 l 170 504 z "},"«":{"ha":669,"x_min":32,"x_max":638,"o":"m 379 235 l 196 235 l 32 456 l 196 677 l 379 677 l 215 456 l 379 235 m 638 235 l 455 235 l 290 456 l 455 677 l 638 677 l 473 456 l 638 235 z "},"¬":{"ha":574,"x_min":44,"x_max":524,"o":"m 44 383 l 44 528 l 524 528 l 524 218 l 372 218 l 372 383 l 44 383 z "},"­":{"ha":372,"x_min":44,"x_max":328,"o":"m 44 534 l 328 534 l 328 376 l 44 376 l 44 534 z "},"®":{"ha":549,"x_min":44,"x_max":505,"o":"m 447 884 q 505 826 505 884 l 505 500 q 447 442 505 442 l 101 442 q 44 500 44 442 l 44 826 q 102 884 44 884 l 447 884 m 429 516 l 429 811 q 418 821 429 821 l 130 821 q 120 811 120 821 l 120 516 q 130 505 120 505 l 418 505 q 429 516 429 505 m 381 667 q 360 619 381 633 l 388 537 l 311 537 l 285 609 l 242 609 l 242 537 l 167 537 l 167 789 l 323 789 q 381 731 381 789 l 381 667 m 242 672 l 295 672 q 306 683 306 672 l 306 716 q 295 726 306 726 l 242 726 l 242 672 z "},"¯":{"ha":410,"x_min":32,"x_max":379,"o":"m 32 1136 l 379 1136 l 379 1004 l 32 1004 l 32 1136 z "},"°":{"ha":331,"x_min":44,"x_max":287,"o":"m 44 745 l 44 802 q 126 884 44 884 l 205 884 q 287 802 287 884 l 287 745 q 205 663 287 663 l 126 663 q 44 745 44 663 m 133 747 q 145 735 133 735 l 186 735 q 198 747 198 735 l 198 799 q 186 812 198 812 l 145 812 q 133 799 133 812 l 133 747 z "},"±":{"ha":593,"x_min":57,"x_max":537,"o":"m 537 439 l 372 439 l 372 275 l 537 275 l 537 143 l 57 143 l 57 275 l 221 275 l 221 439 l 57 439 l 57 585 l 221 585 l 221 749 l 372 749 l 372 585 l 537 585 l 537 439 z "},"²":{"ha":448,"x_min":51,"x_max":404,"o":"m 51 379 l 51 538 q 136 644 51 625 l 261 673 q 278 693 278 677 l 278 759 q 260 777 278 777 l 191 777 q 173 759 173 777 l 173 718 l 53 718 l 53 787 q 150 884 53 884 l 301 884 q 398 787 398 884 l 398 683 q 312 577 398 596 l 187 548 q 170 528 170 544 l 170 486 l 404 486 l 346 379 l 51 379 z "},"³":{"ha":442,"x_min":44,"x_max":391,"o":"m 44 476 l 44 544 l 164 544 l 164 504 q 182 486 164 486 l 254 486 q 271 504 271 486 l 271 566 q 254 583 271 583 l 164 583 l 164 691 l 254 691 q 271 708 271 691 l 271 759 q 254 777 271 777 l 182 777 q 164 759 164 777 l 164 725 l 44 725 l 44 787 q 141 884 44 884 l 294 884 q 391 787 391 884 l 391 682 l 346 636 l 391 591 l 391 476 q 294 379 391 379 l 141 379 q 44 476 44 379 z "},"´":{"ha":303,"x_min":32,"x_max":271,"o":"m 271 1136 l 170 953 l 32 953 l 88 1136 l 271 1136 z "},"¶":{"ha":840,"x_min":44,"x_max":802,"o":"m 44 713 q 88 840 44 795 q 215 884 133 884 l 492 884 l 492 0 l 309 0 l 309 274 l 215 274 q 88 318 133 274 q 44 444 44 362 l 44 713 m 802 884 l 758 789 l 758 0 l 574 0 l 574 884 l 802 884 z "},"·":{"ha":335,"x_min":63,"x_max":271,"o":"m 63 543 l 271 543 l 271 360 l 63 360 l 63 543 z "},"¸":{"ha":318,"x_min":32,"x_max":287,"o":"m 32 -170 l 179 -170 q 193 -157 193 -170 l 193 -138 q 179 -124 193 -124 l 38 -124 l 38 -42 l 62 0 l 168 0 l 144 -42 l 210 -42 q 287 -119 287 -42 l 287 -176 q 210 -253 287 -253 l 78 -253 l 32 -170 z "},"¹":{"ha":253,"x_min":25,"x_max":202,"o":"m 25 884 l 202 884 l 202 379 l 82 379 l 82 777 l 25 777 l 25 884 z "},"º":{"ha":448,"x_min":51,"x_max":398,"o":"m 148 379 q 51 476 51 379 l 51 787 q 148 884 51 884 l 301 884 q 398 787 398 884 l 398 476 q 301 379 398 379 l 148 379 m 170 504 q 188 486 170 486 l 260 486 q 278 504 278 486 l 278 759 q 260 777 278 777 l 188 777 q 170 759 170 777 l 170 504 z "},"»":{"ha":669,"x_min":32,"x_max":638,"o":"m 32 235 l 196 456 l 32 677 l 215 677 l 379 456 l 215 235 l 32 235 m 290 235 l 455 456 l 290 677 l 473 677 l 638 456 l 473 235 l 290 235 z "},"¼":{"ha":937,"x_min":51,"x_max":886,"o":"m 51 884 l 227 884 l 227 379 l 107 379 l 107 777 l 51 777 l 51 884 m 558 884 l 697 884 l 274 0 l 135 0 l 558 884 m 508 104 l 508 211 l 688 505 l 842 505 l 842 211 l 886 211 l 842 128 l 842 0 l 722 0 l 722 104 l 508 104 m 621 211 l 722 211 l 722 376 l 621 211 z "},"½":{"ha":973,"x_min":51,"x_max":923,"o":"m 51 884 l 227 884 l 227 379 l 107 379 l 107 777 l 51 777 l 51 884 m 558 884 l 697 884 l 274 0 l 135 0 l 558 884 m 569 0 l 569 159 q 655 265 569 246 l 780 294 q 797 314 797 298 l 797 380 q 779 398 797 398 l 710 398 q 692 380 692 398 l 692 340 l 572 340 l 572 408 q 669 505 572 505 l 819 505 q 917 408 917 505 l 917 304 q 831 198 917 217 l 706 169 q 689 149 689 165 l 689 107 l 923 107 l 865 0 l 569 0 z "},"¾":{"ha":1062,"x_min":51,"x_max":1011,"o":"m 51 476 l 51 544 l 170 544 l 170 504 q 188 486 170 486 l 260 486 q 278 504 278 486 l 278 566 q 260 583 278 583 l 170 583 l 170 691 l 260 691 q 278 708 278 691 l 278 759 q 260 777 278 777 l 188 777 q 170 759 170 777 l 170 725 l 51 725 l 51 787 q 148 884 51 884 l 301 884 q 398 787 398 884 l 398 682 l 352 636 l 398 591 l 398 476 q 301 379 398 379 l 148 379 q 51 476 51 379 m 696 884 l 835 884 l 412 0 l 273 0 l 696 884 m 633 104 l 633 211 l 813 505 l 967 505 l 967 211 l 1011 211 l 967 128 l 967 0 l 847 0 l 847 104 l 633 104 m 746 211 l 847 211 l 847 376 l 746 211 z "},"¿":{"ha":638,"x_min":38,"x_max":638,"o":"m 467 448 l 259 448 l 259 631 l 467 631 l 467 448 m 638 18 l 638 -88 q 593 -215 638 -170 q 467 -259 549 -259 l 208 -259 q 82 -215 126 -259 q 38 -88 38 -170 l 38 133 q 76 240 38 202 q 183 278 114 278 l 259 278 l 265 372 l 461 372 l 467 278 l 467 218 q 435 127 467 159 q 343 95 403 95 l 278 95 q 246 63 246 95 l 246 -44 q 278 -76 246 -76 l 398 -76 q 429 -44 429 -76 l 429 18 l 638 18 z "},"À":{"ha":760,"x_min":28,"x_max":735,"o":"m 455 953 l 316 953 l 215 1136 l 398 1136 l 455 953 m 520 0 l 485 183 l 278 183 l 242 0 l 28 0 l 220 789 l 176 884 l 520 884 l 735 0 l 520 0 m 313 366 l 449 366 l 385 701 l 378 701 l 313 366 z "},"Á":{"ha":760,"x_min":28,"x_max":735,"o":"m 549 1136 l 448 953 l 309 953 l 366 1136 l 549 1136 m 520 0 l 485 183 l 278 183 l 242 0 l 28 0 l 220 789 l 176 884 l 520 884 l 735 0 l 520 0 m 313 366 l 449 366 l 385 701 l 378 701 l 313 366 z "},"Â":{"ha":760,"x_min":28,"x_max":735,"o":"m 379 1059 l 328 953 l 196 953 l 295 1136 l 462 1136 l 562 953 l 429 953 l 379 1059 m 520 0 l 485 183 l 278 183 l 242 0 l 28 0 l 220 789 l 176 884 l 520 884 l 735 0 l 520 0 m 313 366 l 449 366 l 385 701 l 378 701 l 313 366 z "},"Ã":{"ha":760,"x_min":28,"x_max":735,"o":"m 278 1054 l 278 953 l 177 953 l 177 1042 q 201 1112 177 1087 q 271 1136 226 1136 l 343 1136 l 482 1035 l 486 1035 l 486 1136 l 587 1136 l 587 1048 q 563 978 587 1003 q 492 953 538 953 l 420 953 l 282 1054 l 278 1054 m 520 0 l 485 183 l 278 183 l 242 0 l 28 0 l 220 789 l 176 884 l 520 884 l 735 0 l 520 0 m 313 366 l 449 366 l 385 701 l 378 701 l 313 366 z "},"Ä":{"ha":760,"x_min":28,"x_max":735,"o":"m 341 1136 l 341 979 l 164 979 l 164 1136 l 341 1136 m 593 1136 l 593 979 l 417 979 l 417 1136 l 593 1136 m 520 0 l 485 183 l 278 183 l 242 0 l 28 0 l 220 789 l 176 884 l 520 884 l 735 0 l 520 0 m 313 366 l 449 366 l 385 701 l 378 701 l 313 366 z "},"Å":{"ha":760,"x_min":28,"x_max":735,"o":"m 341 915 q 259 999 259 915 l 259 1053 q 341 1136 259 1136 l 419 1136 q 501 1053 501 1136 l 501 999 q 419 915 501 915 l 341 915 m 347 1052 l 347 1000 q 360 987 347 987 l 400 987 q 413 1000 413 987 l 413 1052 q 400 1064 413 1064 l 360 1064 q 347 1052 347 1064 m 520 0 l 485 183 l 278 183 l 242 0 l 28 0 l 220 789 l 176 884 l 520 884 l 735 0 l 520 0 m 313 366 l 449 366 l 385 701 l 378 701 l 313 366 z "},"Æ":{"ha":1077,"x_min":0,"x_max":1064,"o":"m 711 360 l 711 183 l 1064 183 l 963 0 l 503 0 l 503 183 l 277 183 l 202 0 l 0 0 l 327 789 l 283 884 l 1064 884 l 963 701 l 711 701 l 711 543 l 1001 543 l 900 360 l 711 360 m 352 366 l 503 366 l 503 701 l 489 701 l 352 366 z "},"Ç":{"ha":720,"x_min":63,"x_max":663,"o":"m 663 556 l 455 556 l 455 676 q 423 707 455 707 l 303 707 q 271 676 271 707 l 271 208 q 303 177 271 177 l 423 177 q 455 208 455 177 l 455 346 l 663 346 l 663 164 q 619 38 663 82 q 492 -6 574 -6 l 379 -6 l 359 -42 l 424 -42 q 501 -119 501 -42 l 501 -176 q 424 -253 501 -253 l 293 -253 l 246 -170 l 394 -170 q 408 -157 408 -170 l 408 -138 q 394 -124 408 -124 l 253 -124 l 253 -42 l 273 -6 l 234 -6 q 107 38 152 -6 q 63 164 63 82 l 63 720 q 107 846 63 802 q 234 890 152 890 l 492 890 q 619 846 574 890 q 663 720 663 802 l 663 556 z "},"È":{"ha":657,"x_min":38,"x_max":644,"o":"m 423 953 l 284 953 l 183 1136 l 366 1136 l 423 953 m 290 360 l 290 183 l 644 183 l 543 0 l 82 0 l 82 789 l 38 884 l 644 884 l 543 701 l 290 701 l 290 543 l 581 543 l 480 360 l 290 360 z "},"É":{"ha":657,"x_min":38,"x_max":644,"o":"m 508 1136 l 407 953 l 268 953 l 324 1136 l 508 1136 m 290 360 l 290 183 l 644 183 l 543 0 l 82 0 l 82 789 l 38 884 l 644 884 l 543 701 l 290 701 l 290 543 l 581 543 l 480 360 l 290 360 z "},"Ê":{"ha":657,"x_min":38,"x_max":644,"o":"m 335 1059 l 284 953 l 152 953 l 251 1136 l 418 1136 l 518 953 l 385 953 l 335 1059 m 290 360 l 290 183 l 644 183 l 543 0 l 82 0 l 82 789 l 38 884 l 644 884 l 543 701 l 290 701 l 290 543 l 581 543 l 480 360 l 290 360 z "},"Ë":{"ha":657,"x_min":38,"x_max":644,"o":"m 303 1136 l 303 979 l 126 979 l 126 1136 l 303 1136 m 556 1136 l 556 979 l 379 979 l 379 1136 l 556 1136 m 290 360 l 290 183 l 644 183 l 543 0 l 82 0 l 82 789 l 38 884 l 644 884 l 543 701 l 290 701 l 290 543 l 581 543 l 480 360 l 290 360 z "},"Ì":{"ha":360,"x_min":13,"x_max":290,"o":"m 253 953 l 114 953 l 13 1136 l 196 1136 l 253 953 m 290 884 l 290 0 l 82 0 l 82 789 l 38 884 l 290 884 z "},"Í":{"ha":360,"x_min":38,"x_max":335,"o":"m 335 1136 l 234 953 l 95 953 l 152 1136 l 335 1136 m 38 884 l 290 884 l 290 0 l 82 0 l 82 789 l 38 884 z "},"Î":{"ha":360,"x_min":-10,"x_max":356,"o":"m 173 1059 l 122 953 l -10 953 l 90 1136 l 256 1136 l 356 953 l 223 953 l 173 1059 m 38 884 l 290 884 l 290 0 l 82 0 l 82 789 l 38 884 z "},"Ï":{"ha":360,"x_min":-42,"x_max":388,"o":"m 135 1136 l 135 979 l -42 979 l -42 1136 l 135 1136 m 211 1136 l 388 1136 l 388 979 l 211 979 l 211 1136 m 38 884 l 290 884 l 290 0 l 82 0 l 82 789 l 38 884 z "},"Ð":{"ha":764,"x_min":32,"x_max":701,"o":"m 530 884 q 657 840 612 884 q 701 713 701 795 l 701 170 q 657 44 701 88 q 530 0 612 0 l 101 0 l 101 380 l 32 380 l 32 525 l 101 525 l 101 789 l 57 884 l 530 884 m 492 215 l 492 669 q 461 701 492 701 l 309 701 l 309 525 l 391 525 l 391 380 l 309 380 l 309 183 l 461 183 q 492 215 492 183 z "},"Ñ":{"ha":783,"x_min":38,"x_max":713,"o":"m 284 1054 l 284 953 l 183 953 l 183 1042 q 208 1112 183 1087 q 278 1136 232 1136 l 350 1136 l 489 1035 l 492 1035 l 492 1136 l 593 1136 l 593 1048 q 569 978 593 1003 q 499 953 544 953 l 427 953 l 288 1054 l 284 1054 m 505 884 l 713 884 l 713 0 l 518 0 l 290 457 l 290 0 l 82 0 l 82 789 l 38 884 l 278 884 l 505 427 l 505 884 z "},"Ò":{"ha":726,"x_min":63,"x_max":663,"o":"m 196 1136 l 379 1136 l 436 953 l 297 953 l 196 1136 m 234 -6 q 107 38 152 -6 q 63 164 63 82 l 63 720 q 107 846 63 802 q 234 890 152 890 l 492 890 q 619 846 574 890 q 663 720 663 802 l 663 164 q 619 38 663 82 q 492 -6 574 -6 l 234 -6 m 271 208 q 303 177 271 177 l 423 177 q 455 208 455 177 l 455 676 q 423 707 455 707 l 303 707 q 271 676 271 707 l 271 208 z "},"Ó":{"ha":726,"x_min":63,"x_max":663,"o":"m 528 1136 l 427 953 l 288 953 l 345 1136 l 528 1136 m 234 -6 q 107 38 152 -6 q 63 164 63 82 l 63 720 q 107 846 63 802 q 234 890 152 890 l 492 890 q 619 846 574 890 q 663 720 663 802 l 663 164 q 619 38 663 82 q 492 -6 574 -6 l 234 -6 m 271 208 q 303 177 271 177 l 423 177 q 455 208 455 177 l 455 676 q 423 707 455 707 l 303 707 q 271 676 271 707 l 271 208 z "},"Ô":{"ha":726,"x_min":63,"x_max":663,"o":"m 170 953 l 270 1136 l 437 1136 l 537 953 l 404 953 l 354 1059 l 303 953 l 170 953 m 234 -6 q 107 38 152 -6 q 63 164 63 82 l 63 720 q 107 846 63 802 q 234 890 152 890 l 492 890 q 619 846 574 890 q 663 720 663 802 l 663 164 q 619 38 663 82 q 492 -6 574 -6 l 234 -6 m 271 208 q 303 177 271 177 l 423 177 q 455 208 455 177 l 455 676 q 423 707 455 707 l 303 707 q 271 676 271 707 l 271 208 z "},"Õ":{"ha":726,"x_min":63,"x_max":663,"o":"m 461 1136 l 562 1136 l 562 1048 q 537 978 562 1003 q 467 953 513 953 l 395 953 l 256 1054 l 253 1054 l 253 953 l 152 953 l 152 1042 q 176 1112 152 1087 q 246 1136 201 1136 l 318 1136 l 457 1035 l 461 1035 l 461 1136 m 234 -6 q 107 38 152 -6 q 63 164 63 82 l 63 720 q 107 846 63 802 q 234 890 152 890 l 492 890 q 619 846 574 890 q 663 720 663 802 l 663 164 q 619 38 663 82 q 492 -6 574 -6 l 234 -6 m 271 208 q 303 177 271 177 l 423 177 q 455 208 455 177 l 455 676 q 423 707 455 707 l 303 707 q 271 676 271 707 l 271 208 z "},"Ö":{"ha":726,"x_min":63,"x_max":663,"o":"m 145 1136 l 322 1136 l 322 979 l 145 979 l 145 1136 m 398 1136 l 574 1136 l 574 979 l 398 979 l 398 1136 m 234 -6 q 107 38 152 -6 q 63 164 63 82 l 63 720 q 107 846 63 802 q 234 890 152 890 l 492 890 q 619 846 574 890 q 663 720 663 802 l 663 164 q 619 38 663 82 q 492 -6 574 -6 l 234 -6 m 271 208 q 303 177 271 177 l 423 177 q 455 208 455 177 l 455 676 q 423 707 455 707 l 303 707 q 271 676 271 707 l 271 208 z "},"×":{"ha":524,"x_min":25,"x_max":499,"o":"m 25 249 l 162 453 l 25 659 l 196 659 l 263 552 l 328 659 l 499 659 l 362 453 l 499 249 l 328 249 l 263 356 l 196 249 l 25 249 z "},"Ø":{"ha":789,"x_min":32,"x_max":758,"o":"m 758 827 l 758 644 l 694 593 l 694 164 q 650 38 694 82 q 524 -6 606 -6 l 265 -6 q 100 112 128 -6 l 32 57 l 32 240 l 95 290 l 95 720 q 139 846 95 802 q 265 890 183 890 l 524 890 q 689 771 662 890 l 758 827 m 303 676 l 303 460 l 486 607 l 486 676 q 455 707 486 707 l 335 707 q 303 676 303 707 m 486 208 l 486 424 l 303 277 l 303 208 q 335 177 303 177 l 455 177 q 486 208 486 177 z "},"Ù":{"ha":747,"x_min":34,"x_max":678,"o":"m 448 953 l 309 953 l 208 1136 l 391 1136 l 448 953 m 470 884 l 678 884 l 678 0 l 249 0 q 122 44 167 0 q 78 170 78 88 l 78 789 l 34 884 l 287 884 l 287 215 q 318 183 287 183 l 470 183 l 470 884 z "},"Ú":{"ha":747,"x_min":34,"x_max":678,"o":"m 530 1136 l 429 953 l 290 953 l 347 1136 l 530 1136 m 470 884 l 678 884 l 678 0 l 249 0 q 122 44 167 0 q 78 170 78 88 l 78 789 l 34 884 l 287 884 l 287 215 q 318 183 287 183 l 470 183 l 470 884 z "},"Û":{"ha":747,"x_min":34,"x_max":678,"o":"m 372 1059 l 322 953 l 189 953 l 289 1136 l 456 1136 l 556 953 l 423 953 l 372 1059 m 470 884 l 678 884 l 678 0 l 249 0 q 122 44 167 0 q 78 170 78 88 l 78 789 l 34 884 l 287 884 l 287 215 q 318 183 287 183 l 470 183 l 470 884 z "},"Ü":{"ha":747,"x_min":34,"x_max":678,"o":"m 341 1136 l 341 979 l 164 979 l 164 1136 l 341 1136 m 593 1136 l 593 979 l 417 979 l 417 1136 l 593 1136 m 470 884 l 678 884 l 678 0 l 249 0 q 122 44 167 0 q 78 170 78 88 l 78 789 l 34 884 l 287 884 l 287 215 q 318 183 287 183 l 470 183 l 470 884 z "},"Ý":{"ha":707,"x_min":0,"x_max":707,"o":"m 524 1136 l 423 953 l 284 953 l 341 1136 l 524 1136 m 0 884 l 221 884 l 355 528 l 486 884 l 707 884 l 458 299 l 458 0 l 250 0 l 250 299 l 0 884 z "},"Þ":{"ha":726,"x_min":69,"x_max":669,"o":"m 69 0 l 69 884 l 278 884 l 278 755 l 499 755 q 625 711 581 755 q 669 585 669 667 l 669 316 q 625 189 669 234 q 499 145 581 145 l 278 145 l 278 0 l 69 0 m 278 328 l 429 328 q 461 360 461 328 l 461 540 q 429 572 461 572 l 278 572 l 278 328 z "},"ß":{"ha":729,"x_min":66,"x_max":665,"o":"m 347 183 l 426 183 q 457 215 457 183 l 457 328 q 426 360 457 360 l 347 360 l 347 543 l 426 543 q 457 574 457 543 l 457 676 q 426 707 457 707 l 306 707 q 274 676 274 707 l 274 0 l 66 0 l 66 720 q 110 846 66 802 q 236 890 154 890 l 495 890 q 621 846 577 890 q 665 720 665 802 l 665 530 l 586 451 l 665 371 l 665 170 q 621 44 665 88 q 495 0 577 0 l 347 0 l 347 183 z "},"à":{"ha":760,"x_min":28,"x_max":735,"o":"m 455 953 l 316 953 l 215 1136 l 398 1136 l 455 953 m 520 0 l 485 183 l 278 183 l 242 0 l 28 0 l 220 789 l 176 884 l 520 884 l 735 0 l 520 0 m 313 366 l 449 366 l 385 701 l 378 701 l 313 366 z "},"á":{"ha":760,"x_min":28,"x_max":735,"o":"m 549 1136 l 448 953 l 309 953 l 366 1136 l 549 1136 m 520 0 l 485 183 l 278 183 l 242 0 l 28 0 l 220 789 l 176 884 l 520 884 l 735 0 l 520 0 m 313 366 l 449 366 l 385 701 l 378 701 l 313 366 z "},"â":{"ha":760,"x_min":28,"x_max":735,"o":"m 379 1059 l 328 953 l 196 953 l 295 1136 l 462 1136 l 562 953 l 429 953 l 379 1059 m 520 0 l 485 183 l 278 183 l 242 0 l 28 0 l 220 789 l 176 884 l 520 884 l 735 0 l 520 0 m 313 366 l 449 366 l 385 701 l 378 701 l 313 366 z "},"ã":{"ha":760,"x_min":28,"x_max":735,"o":"m 278 1054 l 278 953 l 177 953 l 177 1042 q 201 1112 177 1087 q 271 1136 226 1136 l 343 1136 l 482 1035 l 486 1035 l 486 1136 l 587 1136 l 587 1048 q 563 978 587 1003 q 492 953 538 953 l 420 953 l 282 1054 l 278 1054 m 520 0 l 485 183 l 278 183 l 242 0 l 28 0 l 220 789 l 176 884 l 520 884 l 735 0 l 520 0 m 313 366 l 449 366 l 385 701 l 378 701 l 313 366 z "},"ä":{"ha":760,"x_min":28,"x_max":735,"o":"m 341 1136 l 341 979 l 164 979 l 164 1136 l 341 1136 m 593 1136 l 593 979 l 417 979 l 417 1136 l 593 1136 m 520 0 l 485 183 l 278 183 l 242 0 l 28 0 l 220 789 l 176 884 l 520 884 l 735 0 l 520 0 m 313 366 l 449 366 l 385 701 l 378 701 l 313 366 z "},"å":{"ha":760,"x_min":28,"x_max":735,"o":"m 341 915 q 259 999 259 915 l 259 1053 q 341 1136 259 1136 l 419 1136 q 501 1053 501 1136 l 501 999 q 419 915 501 915 l 341 915 m 347 1052 l 347 1000 q 360 987 347 987 l 400 987 q 413 1000 413 987 l 413 1052 q 400 1064 413 1064 l 360 1064 q 347 1052 347 1064 m 520 0 l 485 183 l 278 183 l 242 0 l 28 0 l 220 789 l 176 884 l 520 884 l 735 0 l 520 0 m 313 366 l 449 366 l 385 701 l 378 701 l 313 366 z "},"æ":{"ha":1077,"x_min":0,"x_max":1064,"o":"m 711 360 l 711 183 l 1064 183 l 963 0 l 503 0 l 503 183 l 277 183 l 202 0 l 0 0 l 327 789 l 283 884 l 1064 884 l 963 701 l 711 701 l 711 543 l 1001 543 l 900 360 l 711 360 m 352 366 l 503 366 l 503 701 l 489 701 l 352 366 z "},"ç":{"ha":720,"x_min":63,"x_max":663,"o":"m 663 556 l 455 556 l 455 676 q 423 707 455 707 l 303 707 q 271 676 271 707 l 271 208 q 303 177 271 177 l 423 177 q 455 208 455 177 l 455 346 l 663 346 l 663 164 q 619 38 663 82 q 492 -6 574 -6 l 379 -6 l 359 -42 l 424 -42 q 501 -119 501 -42 l 501 -176 q 424 -253 501 -253 l 293 -253 l 246 -170 l 394 -170 q 408 -157 408 -170 l 408 -138 q 394 -124 408 -124 l 253 -124 l 253 -42 l 273 -6 l 234 -6 q 107 38 152 -6 q 63 164 63 82 l 63 720 q 107 846 63 802 q 234 890 152 890 l 492 890 q 619 846 574 890 q 663 720 663 802 l 663 556 z "},"è":{"ha":657,"x_min":38,"x_max":644,"o":"m 423 953 l 284 953 l 183 1136 l 366 1136 l 423 953 m 290 360 l 290 183 l 644 183 l 543 0 l 82 0 l 82 789 l 38 884 l 644 884 l 543 701 l 290 701 l 290 543 l 581 543 l 480 360 l 290 360 z "},"é":{"ha":657,"x_min":38,"x_max":644,"o":"m 508 1136 l 407 953 l 268 953 l 324 1136 l 508 1136 m 290 360 l 290 183 l 644 183 l 543 0 l 82 0 l 82 789 l 38 884 l 644 884 l 543 701 l 290 701 l 290 543 l 581 543 l 480 360 l 290 360 z "},"ê":{"ha":657,"x_min":38,"x_max":644,"o":"m 335 1059 l 284 953 l 152 953 l 251 1136 l 418 1136 l 518 953 l 385 953 l 335 1059 m 290 360 l 290 183 l 644 183 l 543 0 l 82 0 l 82 789 l 38 884 l 644 884 l 543 701 l 290 701 l 290 543 l 581 543 l 480 360 l 290 360 z "},"ë":{"ha":657,"x_min":38,"x_max":644,"o":"m 303 1136 l 303 979 l 126 979 l 126 1136 l 303 1136 m 556 1136 l 556 979 l 379 979 l 379 1136 l 556 1136 m 290 360 l 290 183 l 644 183 l 543 0 l 82 0 l 82 789 l 38 884 l 644 884 l 543 701 l 290 701 l 290 543 l 581 543 l 480 360 l 290 360 z "},"ì":{"ha":360,"x_min":13,"x_max":290,"o":"m 253 953 l 114 953 l 13 1136 l 196 1136 l 253 953 m 290 884 l 290 0 l 82 0 l 82 789 l 38 884 l 290 884 z "},"í":{"ha":360,"x_min":38,"x_max":335,"o":"m 335 1136 l 234 953 l 95 953 l 152 1136 l 335 1136 m 38 884 l 290 884 l 290 0 l 82 0 l 82 789 l 38 884 z "},"î":{"ha":360,"x_min":-10,"x_max":356,"o":"m 173 1059 l 122 953 l -10 953 l 90 1136 l 256 1136 l 356 953 l 223 953 l 173 1059 m 38 884 l 290 884 l 290 0 l 82 0 l 82 789 l 38 884 z "},"ï":{"ha":360,"x_min":-42,"x_max":388,"o":"m 135 1136 l 135 979 l -42 979 l -42 1136 l 135 1136 m 211 1136 l 388 1136 l 388 979 l 211 979 l 211 1136 m 38 884 l 290 884 l 290 0 l 82 0 l 82 789 l 38 884 z "},"ð":{"ha":764,"x_min":32,"x_max":701,"o":"m 530 884 q 657 840 612 884 q 701 713 701 795 l 701 170 q 657 44 701 88 q 530 0 612 0 l 101 0 l 101 380 l 32 380 l 32 525 l 101 525 l 101 789 l 57 884 l 530 884 m 492 215 l 492 669 q 461 701 492 701 l 309 701 l 309 525 l 391 525 l 391 380 l 309 380 l 309 183 l 461 183 q 492 215 492 183 z "},"ñ":{"ha":783,"x_min":38,"x_max":713,"o":"m 284 1054 l 284 953 l 183 953 l 183 1042 q 208 1112 183 1087 q 278 1136 232 1136 l 350 1136 l 489 1035 l 492 1035 l 492 1136 l 593 1136 l 593 1048 q 569 978 593 1003 q 499 953 544 953 l 427 953 l 288 1054 l 284 1054 m 505 884 l 713 884 l 713 0 l 518 0 l 290 457 l 290 0 l 82 0 l 82 789 l 38 884 l 278 884 l 505 427 l 505 884 z "},"ò":{"ha":726,"x_min":63,"x_max":663,"o":"m 196 1136 l 379 1136 l 436 953 l 297 953 l 196 1136 m 234 -6 q 107 38 152 -6 q 63 164 63 82 l 63 720 q 107 846 63 802 q 234 890 152 890 l 492 890 q 619 846 574 890 q 663 720 663 802 l 663 164 q 619 38 663 82 q 492 -6 574 -6 l 234 -6 m 271 208 q 303 177 271 177 l 423 177 q 455 208 455 177 l 455 676 q 423 707 455 707 l 303 707 q 271 676 271 707 l 271 208 z "},"ó":{"ha":726,"x_min":63,"x_max":663,"o":"m 528 1136 l 427 953 l 288 953 l 345 1136 l 528 1136 m 234 -6 q 107 38 152 -6 q 63 164 63 82 l 63 720 q 107 846 63 802 q 234 890 152 890 l 492 890 q 619 846 574 890 q 663 720 663 802 l 663 164 q 619 38 663 82 q 492 -6 574 -6 l 234 -6 m 271 208 q 303 177 271 177 l 423 177 q 455 208 455 177 l 455 676 q 423 707 455 707 l 303 707 q 271 676 271 707 l 271 208 z "},"ô":{"ha":726,"x_min":63,"x_max":663,"o":"m 170 953 l 270 1136 l 437 1136 l 537 953 l 404 953 l 354 1059 l 303 953 l 170 953 m 234 -6 q 107 38 152 -6 q 63 164 63 82 l 63 720 q 107 846 63 802 q 234 890 152 890 l 492 890 q 619 846 574 890 q 663 720 663 802 l 663 164 q 619 38 663 82 q 492 -6 574 -6 l 234 -6 m 271 208 q 303 177 271 177 l 423 177 q 455 208 455 177 l 455 676 q 423 707 455 707 l 303 707 q 271 676 271 707 l 271 208 z "},"õ":{"ha":726,"x_min":63,"x_max":663,"o":"m 461 1136 l 562 1136 l 562 1048 q 537 978 562 1003 q 467 953 513 953 l 395 953 l 256 1054 l 253 1054 l 253 953 l 152 953 l 152 1042 q 176 1112 152 1087 q 246 1136 201 1136 l 318 1136 l 457 1035 l 461 1035 l 461 1136 m 234 -6 q 107 38 152 -6 q 63 164 63 82 l 63 720 q 107 846 63 802 q 234 890 152 890 l 492 890 q 619 846 574 890 q 663 720 663 802 l 663 164 q 619 38 663 82 q 492 -6 574 -6 l 234 -6 m 271 208 q 303 177 271 177 l 423 177 q 455 208 455 177 l 455 676 q 423 707 455 707 l 303 707 q 271 676 271 707 l 271 208 z "},"ö":{"ha":726,"x_min":63,"x_max":663,"o":"m 145 1136 l 322 1136 l 322 979 l 145 979 l 145 1136 m 398 1136 l 574 1136 l 574 979 l 398 979 l 398 1136 m 234 -6 q 107 38 152 -6 q 63 164 63 82 l 63 720 q 107 846 63 802 q 234 890 152 890 l 492 890 q 619 846 574 890 q 663 720 663 802 l 663 164 q 619 38 663 82 q 492 -6 574 -6 l 234 -6 m 271 208 q 303 177 271 177 l 423 177 q 455 208 455 177 l 455 676 q 423 707 455 707 l 303 707 q 271 676 271 707 l 271 208 z "},"÷":{"ha":537,"x_min":38,"x_max":499,"o":"m 183 742 l 354 742 l 354 591 l 183 591 l 183 742 m 38 528 l 499 528 l 499 383 l 38 383 l 38 528 m 183 319 l 354 319 l 354 168 l 183 168 l 183 319 z "},"ø":{"ha":789,"x_min":32,"x_max":758,"o":"m 758 827 l 758 644 l 694 593 l 694 164 q 650 38 694 82 q 524 -6 606 -6 l 265 -6 q 100 112 128 -6 l 32 57 l 32 240 l 95 290 l 95 720 q 139 846 95 802 q 265 890 183 890 l 524 890 q 689 771 662 890 l 758 827 m 303 676 l 303 460 l 486 607 l 486 676 q 455 707 486 707 l 335 707 q 303 676 303 707 m 486 208 l 486 424 l 303 277 l 303 208 q 335 177 303 177 l 455 177 q 486 208 486 177 z "},"ù":{"ha":747,"x_min":34,"x_max":678,"o":"m 448 953 l 309 953 l 208 1136 l 391 1136 l 448 953 m 470 884 l 678 884 l 678 0 l 249 0 q 122 44 167 0 q 78 170 78 88 l 78 789 l 34 884 l 287 884 l 287 215 q 318 183 287 183 l 470 183 l 470 884 z "},"ú":{"ha":747,"x_min":34,"x_max":678,"o":"m 530 1136 l 429 953 l 290 953 l 347 1136 l 530 1136 m 470 884 l 678 884 l 678 0 l 249 0 q 122 44 167 0 q 78 170 78 88 l 78 789 l 34 884 l 287 884 l 287 215 q 318 183 287 183 l 470 183 l 470 884 z "},"û":{"ha":747,"x_min":34,"x_max":678,"o":"m 372 1059 l 322 953 l 189 953 l 289 1136 l 456 1136 l 556 953 l 423 953 l 372 1059 m 470 884 l 678 884 l 678 0 l 249 0 q 122 44 167 0 q 78 170 78 88 l 78 789 l 34 884 l 287 884 l 287 215 q 318 183 287 183 l 470 183 l 470 884 z "},"ü":{"ha":747,"x_min":34,"x_max":678,"o":"m 341 1136 l 341 979 l 164 979 l 164 1136 l 341 1136 m 593 1136 l 593 979 l 417 979 l 417 1136 l 593 1136 m 470 884 l 678 884 l 678 0 l 249 0 q 122 44 167 0 q 78 170 78 88 l 78 789 l 34 884 l 287 884 l 287 215 q 318 183 287 183 l 470 183 l 470 884 z "},"ý":{"ha":707,"x_min":0,"x_max":707,"o":"m 524 1136 l 423 953 l 284 953 l 341 1136 l 524 1136 m 0 884 l 221 884 l 355 528 l 486 884 l 707 884 l 458 299 l 458 0 l 250 0 l 250 299 l 0 884 z "},"þ":{"ha":726,"x_min":69,"x_max":669,"o":"m 69 0 l 69 884 l 278 884 l 278 755 l 499 755 q 625 711 581 755 q 669 585 669 667 l 669 316 q 625 189 669 234 q 499 145 581 145 l 278 145 l 278 0 l 69 0 m 278 328 l 429 328 q 461 360 461 328 l 461 540 q 429 572 461 572 l 278 572 l 278 328 z "},"ÿ":{"ha":707,"x_min":0,"x_max":707,"o":"m 133 1136 l 309 1136 l 309 979 l 133 979 l 133 1136 m 385 1136 l 562 1136 l 562 979 l 385 979 l 385 1136 m 0 884 l 221 884 l 355 528 l 486 884 l 707 884 l 458 299 l 458 0 l 250 0 l 250 299 l 0 884 z "},"Ā":{"ha":760,"x_min":28,"x_max":735,"o":"m 556 1136 l 556 1004 l 208 1004 l 208 1136 l 556 1136 m 520 0 l 485 183 l 278 183 l 242 0 l 28 0 l 220 789 l 176 884 l 520 884 l 735 0 l 520 0 m 313 366 l 449 366 l 385 701 l 378 701 l 313 366 z "},"ā":{"ha":760,"x_min":28,"x_max":735,"o":"m 556 1136 l 556 1004 l 208 1004 l 208 1136 l 556 1136 m 520 0 l 485 183 l 278 183 l 242 0 l 28 0 l 220 789 l 176 884 l 520 884 l 735 0 l 520 0 m 313 366 l 449 366 l 385 701 l 378 701 l 313 366 z "},"Ă":{"ha":760,"x_min":28,"x_max":735,"o":"m 303 953 q 196 1061 196 953 l 196 1136 l 316 1136 l 316 1073 q 335 1054 316 1054 l 423 1054 q 442 1073 442 1054 l 442 1136 l 562 1136 l 562 1061 q 455 953 562 953 l 303 953 m 520 0 l 485 183 l 278 183 l 242 0 l 28 0 l 220 789 l 176 884 l 520 884 l 735 0 l 520 0 m 313 366 l 449 366 l 385 701 l 378 701 l 313 366 z "},"ă":{"ha":760,"x_min":28,"x_max":735,"o":"m 303 953 q 196 1061 196 953 l 196 1136 l 316 1136 l 316 1073 q 335 1054 316 1054 l 423 1054 q 442 1073 442 1054 l 442 1136 l 562 1136 l 562 1061 q 455 953 562 953 l 303 953 m 520 0 l 485 183 l 278 183 l 242 0 l 28 0 l 220 789 l 176 884 l 520 884 l 735 0 l 520 0 m 313 366 l 449 366 l 385 701 l 378 701 l 313 366 z "},"Ą":{"ha":760,"x_min":28,"x_max":735,"o":"m 653 0 l 568 -152 l 729 -152 l 672 -253 l 539 -253 q 449 -211 473 -253 q 457 -111 424 -170 l 520 0 l 485 183 l 278 183 l 242 0 l 28 0 l 220 789 l 176 884 l 520 884 l 735 0 l 653 0 m 313 366 l 449 366 l 385 701 l 378 701 l 313 366 z "},"ą":{"ha":760,"x_min":28,"x_max":735,"o":"m 653 0 l 568 -152 l 729 -152 l 672 -253 l 539 -253 q 449 -211 473 -253 q 457 -111 424 -170 l 520 0 l 485 183 l 278 183 l 242 0 l 28 0 l 220 789 l 176 884 l 520 884 l 735 0 l 653 0 m 313 366 l 449 366 l 385 701 l 378 701 l 313 366 z "},"Ć":{"ha":720,"x_min":63,"x_max":663,"o":"m 524 1136 l 423 953 l 284 953 l 341 1136 l 524 1136 m 234 -6 q 107 38 152 -6 q 63 164 63 82 l 63 720 q 107 846 63 802 q 234 890 152 890 l 492 890 q 619 846 574 890 q 663 720 663 802 l 663 556 l 455 556 l 455 676 q 423 707 455 707 l 303 707 q 271 676 271 707 l 271 208 q 303 177 271 177 l 423 177 q 455 208 455 177 l 455 346 l 663 346 l 663 164 q 619 38 663 82 q 492 -6 574 -6 l 234 -6 z "},"ć":{"ha":720,"x_min":63,"x_max":663,"o":"m 524 1136 l 423 953 l 284 953 l 341 1136 l 524 1136 m 234 -6 q 107 38 152 -6 q 63 164 63 82 l 63 720 q 107 846 63 802 q 234 890 152 890 l 492 890 q 619 846 574 890 q 663 720 663 802 l 663 556 l 455 556 l 455 676 q 423 707 455 707 l 303 707 q 271 676 271 707 l 271 208 q 303 177 271 177 l 423 177 q 455 208 455 177 l 455 346 l 663 346 l 663 164 q 619 38 663 82 q 492 -6 574 -6 l 234 -6 z "},"Č":{"ha":720,"x_min":63,"x_max":663,"o":"m 177 1136 l 309 1136 l 360 1030 l 410 1136 l 543 1136 l 443 953 l 277 953 l 177 1136 m 234 -6 q 107 38 152 -6 q 63 164 63 82 l 63 720 q 107 846 63 802 q 234 890 152 890 l 492 890 q 619 846 574 890 q 663 720 663 802 l 663 556 l 455 556 l 455 676 q 423 707 455 707 l 303 707 q 271 676 271 707 l 271 208 q 303 177 271 177 l 423 177 q 455 208 455 177 l 455 346 l 663 346 l 663 164 q 619 38 663 82 q 492 -6 574 -6 l 234 -6 z "},"č":{"ha":720,"x_min":63,"x_max":663,"o":"m 177 1136 l 309 1136 l 360 1030 l 410 1136 l 543 1136 l 443 953 l 277 953 l 177 1136 m 234 -6 q 107 38 152 -6 q 63 164 63 82 l 63 720 q 107 846 63 802 q 234 890 152 890 l 492 890 q 619 846 574 890 q 663 720 663 802 l 663 556 l 455 556 l 455 676 q 423 707 455 707 l 303 707 q 271 676 271 707 l 271 208 q 303 177 271 177 l 423 177 q 455 208 455 177 l 455 346 l 663 346 l 663 164 q 619 38 663 82 q 492 -6 574 -6 l 234 -6 z "},"Ď":{"ha":745,"x_min":38,"x_max":682,"o":"m 449 953 l 283 953 l 183 1136 l 316 1136 l 366 1030 l 417 1136 l 549 1136 l 449 953 m 511 884 q 638 840 593 884 q 682 713 682 795 l 682 170 q 638 44 682 88 q 511 0 593 0 l 82 0 l 82 789 l 38 884 l 511 884 m 473 215 l 473 669 q 442 701 473 701 l 290 701 l 290 183 l 442 183 q 473 215 473 183 z "},"ď":{"ha":745,"x_min":38,"x_max":682,"o":"m 449 953 l 283 953 l 183 1136 l 316 1136 l 366 1030 l 417 1136 l 549 1136 l 449 953 m 511 884 q 638 840 593 884 q 682 713 682 795 l 682 170 q 638 44 682 88 q 511 0 593 0 l 82 0 l 82 789 l 38 884 l 511 884 m 473 215 l 473 669 q 442 701 473 701 l 290 701 l 290 183 l 442 183 q 473 215 473 183 z "},"Đ":{"ha":764,"x_min":32,"x_max":701,"o":"m 530 884 q 657 840 612 884 q 701 713 701 795 l 701 170 q 657 44 701 88 q 530 0 612 0 l 101 0 l 101 380 l 32 380 l 32 525 l 101 525 l 101 789 l 57 884 l 530 884 m 492 215 l 492 669 q 461 701 492 701 l 309 701 l 309 525 l 391 525 l 391 380 l 309 380 l 309 183 l 461 183 q 492 215 492 183 z "},"đ":{"ha":764,"x_min":32,"x_max":701,"o":"m 530 884 q 657 840 612 884 q 701 713 701 795 l 701 170 q 657 44 701 88 q 530 0 612 0 l 101 0 l 101 380 l 32 380 l 32 525 l 101 525 l 101 789 l 57 884 l 530 884 m 492 215 l 492 669 q 461 701 492 701 l 309 701 l 309 525 l 391 525 l 391 380 l 309 380 l 309 183 l 461 183 q 492 215 492 183 z "},"Ē":{"ha":657,"x_min":38,"x_max":644,"o":"m 511 1136 l 511 1004 l 164 1004 l 164 1136 l 511 1136 m 290 360 l 290 183 l 644 183 l 543 0 l 82 0 l 82 789 l 38 884 l 644 884 l 543 701 l 290 701 l 290 543 l 581 543 l 480 360 l 290 360 z "},"ē":{"ha":657,"x_min":38,"x_max":644,"o":"m 511 1136 l 511 1004 l 164 1004 l 164 1136 l 511 1136 m 290 360 l 290 183 l 644 183 l 543 0 l 82 0 l 82 789 l 38 884 l 644 884 l 543 701 l 290 701 l 290 543 l 581 543 l 480 360 l 290 360 z "},"Ė":{"ha":657,"x_min":38,"x_max":644,"o":"m 429 1136 l 429 979 l 253 979 l 253 1136 l 429 1136 m 290 360 l 290 183 l 644 183 l 543 0 l 82 0 l 82 789 l 38 884 l 644 884 l 543 701 l 290 701 l 290 543 l 581 543 l 480 360 l 290 360 z "},"ė":{"ha":657,"x_min":38,"x_max":644,"o":"m 429 1136 l 429 979 l 253 979 l 253 1136 l 429 1136 m 290 360 l 290 183 l 644 183 l 543 0 l 82 0 l 82 789 l 38 884 l 644 884 l 543 701 l 290 701 l 290 543 l 581 543 l 480 360 l 290 360 z "},"Ę":{"ha":657,"x_min":38,"x_max":644,"o":"m 644 183 l 543 0 l 458 -152 l 619 -152 l 562 -253 l 429 -253 q 339 -211 364 -253 q 347 -111 314 -170 l 410 0 l 82 0 l 82 789 l 38 884 l 644 884 l 543 701 l 290 701 l 290 543 l 581 543 l 480 360 l 290 360 l 290 183 l 644 183 z "},"ę":{"ha":657,"x_min":38,"x_max":644,"o":"m 644 183 l 543 0 l 458 -152 l 619 -152 l 562 -253 l 429 -253 q 339 -211 364 -253 q 347 -111 314 -170 l 410 0 l 82 0 l 82 789 l 38 884 l 644 884 l 543 701 l 290 701 l 290 543 l 581 543 l 480 360 l 290 360 l 290 183 l 644 183 z "},"Ě":{"ha":657,"x_min":38,"x_max":644,"o":"m 424 953 l 258 953 l 158 1136 l 290 1136 l 341 1030 l 391 1136 l 524 1136 l 424 953 m 290 360 l 290 183 l 644 183 l 543 0 l 82 0 l 82 789 l 38 884 l 644 884 l 543 701 l 290 701 l 290 543 l 581 543 l 480 360 l 290 360 z "},"ě":{"ha":657,"x_min":38,"x_max":644,"o":"m 424 953 l 258 953 l 158 1136 l 290 1136 l 341 1030 l 391 1136 l 524 1136 l 424 953 m 290 360 l 290 183 l 644 183 l 543 0 l 82 0 l 82 789 l 38 884 l 644 884 l 543 701 l 290 701 l 290 543 l 581 543 l 480 360 l 290 360 z "},"Ğ":{"ha":726,"x_min":63,"x_max":676,"o":"m 189 1136 l 309 1136 l 309 1073 q 328 1054 309 1054 l 417 1054 q 436 1073 436 1054 l 436 1136 l 556 1136 l 556 1061 q 448 953 556 953 l 297 953 q 189 1061 189 953 l 189 1136 m 234 0 q 107 44 152 0 q 63 170 63 88 l 63 713 q 107 840 63 795 q 234 884 152 884 l 676 884 l 574 701 l 303 701 q 271 669 271 701 l 271 215 q 303 183 271 183 l 455 183 l 455 543 l 663 543 l 663 0 l 234 0 z "},"ğ":{"ha":726,"x_min":63,"x_max":676,"o":"m 189 1136 l 309 1136 l 309 1073 q 328 1054 309 1054 l 417 1054 q 436 1073 436 1054 l 436 1136 l 556 1136 l 556 1061 q 448 953 556 953 l 297 953 q 189 1061 189 953 l 189 1136 m 234 0 q 107 44 152 0 q 63 170 63 88 l 63 713 q 107 840 63 795 q 234 884 152 884 l 676 884 l 574 701 l 303 701 q 271 669 271 701 l 271 215 q 303 183 271 183 l 455 183 l 455 543 l 663 543 l 663 0 l 234 0 z "},"Ģ":{"ha":726,"x_min":63,"x_max":676,"o":"m 234 0 q 107 44 152 0 q 63 170 63 88 l 63 713 q 107 840 63 795 q 234 884 152 884 l 676 884 l 574 701 l 303 701 q 271 669 271 701 l 271 215 q 303 183 271 183 l 455 183 l 455 543 l 663 543 l 663 0 l 234 0 m 480 -69 l 379 -253 l 240 -253 l 297 -69 l 480 -69 z "},"ģ":{"ha":726,"x_min":63,"x_max":676,"o":"m 234 0 q 107 44 152 0 q 63 170 63 88 l 63 713 q 107 840 63 795 q 234 884 152 884 l 676 884 l 574 701 l 303 701 q 271 669 271 701 l 271 215 q 303 183 271 183 l 455 183 l 455 543 l 663 543 l 663 0 l 234 0 m 480 -69 l 379 -253 l 240 -253 l 297 -69 l 480 -69 z "},"Ī":{"ha":360,"x_min":-6,"x_max":341,"o":"m -6 1136 l 341 1136 l 341 1004 l -6 1004 l -6 1136 m 38 884 l 290 884 l 290 0 l 82 0 l 82 789 l 38 884 z "},"ī":{"ha":360,"x_min":-6,"x_max":341,"o":"m -6 1136 l 341 1136 l 341 1004 l -6 1004 l -6 1136 m 38 884 l 290 884 l 290 0 l 82 0 l 82 789 l 38 884 z "},"Į":{"ha":360,"x_min":38,"x_max":366,"o":"m 206 -152 l 366 -152 l 309 -253 l 177 -253 q 86 -211 111 -253 q 95 -111 62 -170 l 158 0 l 82 0 l 82 789 l 38 884 l 290 884 l 290 0 l 206 -152 z "},"į":{"ha":360,"x_min":38,"x_max":366,"o":"m 206 -152 l 366 -152 l 309 -253 l 177 -253 q 86 -211 111 -253 q 95 -111 62 -170 l 158 0 l 82 0 l 82 789 l 38 884 l 290 884 l 290 0 l 206 -152 z "},"İ":{"ha":360,"x_min":38,"x_max":290,"o":"m 263 1136 l 263 979 l 86 979 l 86 1136 l 263 1136 m 290 884 l 290 0 l 82 0 l 82 789 l 38 884 l 290 884 z "},"ı":{"ha":347,"x_min":69,"x_max":278,"o":"m 278 0 l 69 0 l 69 884 l 278 884 l 278 0 z "},"Ķ":{"ha":758,"x_min":38,"x_max":739,"o":"m 739 884 l 554 456 l 739 0 l 511 0 l 365 360 l 290 360 l 290 0 l 82 0 l 82 789 l 38 884 l 290 884 l 290 543 l 365 543 l 511 884 l 739 884 m 240 -253 l 297 -69 l 480 -69 l 379 -253 l 240 -253 z "},"ķ":{"ha":758,"x_min":38,"x_max":739,"o":"m 739 884 l 554 456 l 739 0 l 511 0 l 365 360 l 290 360 l 290 0 l 82 0 l 82 789 l 38 884 l 290 884 l 290 543 l 365 543 l 511 884 l 739 884 m 240 -253 l 297 -69 l 480 -69 l 379 -253 l 240 -253 z "},"Ĺ":{"ha":593,"x_min":69,"x_max":574,"o":"m 341 1136 l 240 953 l 101 953 l 158 1136 l 341 1136 m 278 183 l 574 183 l 473 0 l 69 0 l 69 884 l 278 884 l 278 183 z "},"ĺ":{"ha":593,"x_min":69,"x_max":574,"o":"m 341 1136 l 240 953 l 101 953 l 158 1136 l 341 1136 m 278 183 l 574 183 l 473 0 l 69 0 l 69 884 l 278 884 l 278 183 z "},"Ļ":{"ha":593,"x_min":69,"x_max":574,"o":"m 278 183 l 574 183 l 473 0 l 69 0 l 69 884 l 278 884 l 278 183 m 429 -69 l 328 -253 l 189 -253 l 246 -69 l 429 -69 z "},"ļ":{"ha":593,"x_min":69,"x_max":574,"o":"m 278 183 l 574 183 l 473 0 l 69 0 l 69 884 l 278 884 l 278 183 m 429 -69 l 328 -253 l 189 -253 l 246 -69 l 429 -69 z "},"Ľ":{"ha":593,"x_min":69,"x_max":574,"o":"m 278 183 l 574 183 l 473 0 l 69 0 l 69 884 l 278 884 l 278 183 m 568 884 l 467 701 l 328 701 l 385 884 l 568 884 z "},"ľ":{"ha":593,"x_min":69,"x_max":574,"o":"m 278 183 l 574 183 l 473 0 l 69 0 l 69 884 l 278 884 l 278 183 m 568 884 l 467 701 l 328 701 l 385 884 l 568 884 z "},"Ł":{"ha":625,"x_min":32,"x_max":606,"o":"m 309 183 l 606 183 l 505 0 l 101 0 l 101 240 l 32 183 l 32 366 l 101 423 l 101 884 l 309 884 l 309 591 l 429 688 l 429 505 l 309 408 l 309 183 z "},"ł":{"ha":625,"x_min":32,"x_max":606,"o":"m 309 183 l 606 183 l 505 0 l 101 0 l 101 240 l 32 183 l 32 366 l 101 423 l 101 884 l 309 884 l 309 591 l 429 688 l 429 505 l 309 408 l 309 183 z "},"Ń":{"ha":783,"x_min":38,"x_max":713,"o":"m 537 1136 l 436 953 l 297 953 l 354 1136 l 537 1136 m 505 884 l 713 884 l 713 0 l 518 0 l 290 457 l 290 0 l 82 0 l 82 789 l 38 884 l 278 884 l 505 427 l 505 884 z "},"ń":{"ha":783,"x_min":38,"x_max":713,"o":"m 537 1136 l 436 953 l 297 953 l 354 1136 l 537 1136 m 505 884 l 713 884 l 713 0 l 518 0 l 290 457 l 290 0 l 82 0 l 82 789 l 38 884 l 278 884 l 505 427 l 505 884 z "},"Ņ":{"ha":783,"x_min":38,"x_max":713,"o":"m 505 884 l 713 884 l 713 0 l 518 0 l 290 457 l 290 0 l 82 0 l 82 789 l 38 884 l 278 884 l 505 427 l 505 884 m 246 -253 l 303 -69 l 486 -69 l 385 -253 l 246 -253 z "},"ņ":{"ha":783,"x_min":38,"x_max":713,"o":"m 505 884 l 713 884 l 713 0 l 518 0 l 290 457 l 290 0 l 82 0 l 82 789 l 38 884 l 278 884 l 505 427 l 505 884 m 246 -253 l 303 -69 l 486 -69 l 385 -253 l 246 -253 z "},"Ň":{"ha":783,"x_min":38,"x_max":713,"o":"m 449 953 l 283 953 l 183 1136 l 316 1136 l 366 1030 l 417 1136 l 549 1136 l 449 953 m 505 884 l 713 884 l 713 0 l 518 0 l 290 457 l 290 0 l 82 0 l 82 789 l 38 884 l 278 884 l 505 427 l 505 884 z "},"ň":{"ha":783,"x_min":38,"x_max":713,"o":"m 449 953 l 283 953 l 183 1136 l 316 1136 l 366 1030 l 417 1136 l 549 1136 l 449 953 m 505 884 l 713 884 l 713 0 l 518 0 l 290 457 l 290 0 l 82 0 l 82 789 l 38 884 l 278 884 l 505 427 l 505 884 z "},"Ō":{"ha":726,"x_min":63,"x_max":663,"o":"m 189 1136 l 537 1136 l 537 1004 l 189 1004 l 189 1136 m 234 -6 q 107 38 152 -6 q 63 164 63 82 l 63 720 q 107 846 63 802 q 234 890 152 890 l 492 890 q 619 846 574 890 q 663 720 663 802 l 663 164 q 619 38 663 82 q 492 -6 574 -6 l 234 -6 m 271 208 q 303 177 271 177 l 423 177 q 455 208 455 177 l 455 676 q 423 707 455 707 l 303 707 q 271 676 271 707 l 271 208 z "},"ō":{"ha":726,"x_min":63,"x_max":663,"o":"m 189 1136 l 537 1136 l 537 1004 l 189 1004 l 189 1136 m 234 -6 q 107 38 152 -6 q 63 164 63 82 l 63 720 q 107 846 63 802 q 234 890 152 890 l 492 890 q 619 846 574 890 q 663 720 663 802 l 663 164 q 619 38 663 82 q 492 -6 574 -6 l 234 -6 m 271 208 q 303 177 271 177 l 423 177 q 455 208 455 177 l 455 676 q 423 707 455 707 l 303 707 q 271 676 271 707 l 271 208 z "},"Ő":{"ha":726,"x_min":63,"x_max":663,"o":"m 410 1136 l 309 953 l 170 953 l 227 1136 l 410 1136 m 631 1136 l 530 953 l 391 953 l 448 1136 l 631 1136 m 234 -6 q 107 38 152 -6 q 63 164 63 82 l 63 720 q 107 846 63 802 q 234 890 152 890 l 492 890 q 619 846 574 890 q 663 720 663 802 l 663 164 q 619 38 663 82 q 492 -6 574 -6 l 234 -6 m 271 208 q 303 177 271 177 l 423 177 q 455 208 455 177 l 455 676 q 423 707 455 707 l 303 707 q 271 676 271 707 l 271 208 z "},"ő":{"ha":726,"x_min":63,"x_max":663,"o":"m 410 1136 l 309 953 l 170 953 l 227 1136 l 410 1136 m 631 1136 l 530 953 l 391 953 l 448 1136 l 631 1136 m 234 -6 q 107 38 152 -6 q 63 164 63 82 l 63 720 q 107 846 63 802 q 234 890 152 890 l 492 890 q 619 846 574 890 q 663 720 663 802 l 663 164 q 619 38 663 82 q 492 -6 574 -6 l 234 -6 m 271 208 q 303 177 271 177 l 423 177 q 455 208 455 177 l 455 676 q 423 707 455 707 l 303 707 q 271 676 271 707 l 271 208 z "},"Œ":{"ha":1029,"x_min":63,"x_max":1016,"o":"m 663 360 l 663 183 l 1016 183 l 915 0 l 234 0 q 107 44 152 0 q 63 170 63 88 l 63 713 q 107 840 63 795 q 234 884 152 884 l 1016 884 l 915 701 l 663 701 l 663 543 l 953 543 l 852 360 l 663 360 m 455 215 l 455 669 q 423 701 455 701 l 303 701 q 271 669 271 701 l 271 215 q 303 183 271 183 l 423 183 q 455 215 455 183 z "},"œ":{"ha":1029,"x_min":63,"x_max":1016,"o":"m 663 360 l 663 183 l 1016 183 l 915 0 l 234 0 q 107 44 152 0 q 63 170 63 88 l 63 713 q 107 840 63 795 q 234 884 152 884 l 1016 884 l 915 701 l 663 701 l 663 543 l 953 543 l 852 360 l 663 360 m 455 215 l 455 669 q 423 701 455 701 l 303 701 q 271 669 271 701 l 271 215 q 303 183 271 183 l 423 183 q 455 215 455 183 z "},"Ŕ":{"ha":739,"x_min":38,"x_max":694,"o":"m 537 1136 l 436 953 l 297 953 l 354 1136 l 537 1136 m 694 0 l 480 0 l 385 274 l 290 274 l 290 0 l 82 0 l 82 789 l 38 884 l 511 884 q 638 840 593 884 q 682 713 682 795 l 682 444 q 595 289 682 326 l 694 0 m 290 457 l 442 457 q 473 489 473 457 l 473 669 q 442 701 473 701 l 290 701 l 290 457 z "},"ŕ":{"ha":739,"x_min":38,"x_max":694,"o":"m 537 1136 l 436 953 l 297 953 l 354 1136 l 537 1136 m 694 0 l 480 0 l 385 274 l 290 274 l 290 0 l 82 0 l 82 789 l 38 884 l 511 884 q 638 840 593 884 q 682 713 682 795 l 682 444 q 595 289 682 326 l 694 0 m 290 457 l 442 457 q 473 489 473 457 l 473 669 q 442 701 473 701 l 290 701 l 290 457 z "},"Ŗ":{"ha":739,"x_min":38,"x_max":694,"o":"m 595 289 l 694 0 l 480 0 l 385 274 l 290 274 l 290 0 l 82 0 l 82 789 l 38 884 l 511 884 q 638 840 593 884 q 682 713 682 795 l 682 444 q 595 289 682 326 m 290 457 l 442 457 q 473 489 473 457 l 473 669 q 442 701 473 701 l 290 701 l 290 457 m 227 -253 l 284 -69 l 467 -69 l 366 -253 l 227 -253 z "},"ŗ":{"ha":739,"x_min":38,"x_max":694,"o":"m 595 289 l 694 0 l 480 0 l 385 274 l 290 274 l 290 0 l 82 0 l 82 789 l 38 884 l 511 884 q 638 840 593 884 q 682 713 682 795 l 682 444 q 595 289 682 326 m 290 457 l 442 457 q 473 489 473 457 l 473 669 q 442 701 473 701 l 290 701 l 290 457 m 227 -253 l 284 -69 l 467 -69 l 366 -253 l 227 -253 z "},"Ř":{"ha":739,"x_min":38,"x_max":694,"o":"m 443 953 l 277 953 l 177 1136 l 309 1136 l 360 1030 l 410 1136 l 543 1136 l 443 953 m 694 0 l 480 0 l 385 274 l 290 274 l 290 0 l 82 0 l 82 789 l 38 884 l 511 884 q 638 840 593 884 q 682 713 682 795 l 682 444 q 595 289 682 326 l 694 0 m 290 457 l 442 457 q 473 489 473 457 l 473 669 q 442 701 473 701 l 290 701 l 290 457 z "},"ř":{"ha":739,"x_min":38,"x_max":694,"o":"m 443 953 l 277 953 l 177 1136 l 309 1136 l 360 1030 l 410 1136 l 543 1136 l 443 953 m 694 0 l 480 0 l 385 274 l 290 274 l 290 0 l 82 0 l 82 789 l 38 884 l 511 884 q 638 840 593 884 q 682 713 682 795 l 682 444 q 595 289 682 326 l 694 0 m 290 457 l 442 457 q 473 489 473 457 l 473 669 q 442 701 473 701 l 290 701 l 290 457 z "},"Ś":{"ha":713,"x_min":57,"x_max":663,"o":"m 537 1136 l 436 953 l 297 953 l 354 1136 l 537 1136 m 57 164 l 57 282 l 265 282 l 265 208 q 297 177 265 177 l 423 177 q 455 208 455 177 l 455 307 q 427 342 455 336 l 207 391 q 57 578 57 426 l 57 720 q 101 846 57 802 q 227 890 145 890 l 486 890 q 612 846 568 890 q 657 720 657 802 l 657 614 l 448 614 l 448 676 q 417 707 448 707 l 297 707 q 265 676 265 707 l 265 595 q 293 559 265 566 l 513 510 q 663 323 663 476 l 663 164 q 619 38 663 82 q 492 -6 574 -6 l 227 -6 q 101 38 145 -6 q 57 164 57 82 z "},"ś":{"ha":713,"x_min":57,"x_max":663,"o":"m 537 1136 l 436 953 l 297 953 l 354 1136 l 537 1136 m 57 164 l 57 282 l 265 282 l 265 208 q 297 177 265 177 l 423 177 q 455 208 455 177 l 455 307 q 427 342 455 336 l 207 391 q 57 578 57 426 l 57 720 q 101 846 57 802 q 227 890 145 890 l 486 890 q 612 846 568 890 q 657 720 657 802 l 657 614 l 448 614 l 448 676 q 417 707 448 707 l 297 707 q 265 676 265 707 l 265 595 q 293 559 265 566 l 513 510 q 663 323 663 476 l 663 164 q 619 38 663 82 q 492 -6 574 -6 l 227 -6 q 101 38 145 -6 q 57 164 57 82 z "},"Ş":{"ha":713,"x_min":57,"x_max":663,"o":"m 513 510 q 663 323 663 476 l 663 164 q 619 38 663 82 q 492 -6 574 -6 l 379 -6 l 359 -42 l 424 -42 q 501 -119 501 -42 l 501 -176 q 424 -253 501 -253 l 293 -253 l 246 -170 l 394 -170 q 408 -157 408 -170 l 408 -138 q 394 -124 408 -124 l 253 -124 l 253 -42 l 273 -6 l 227 -6 q 101 38 145 -6 q 57 164 57 82 l 57 282 l 265 282 l 265 208 q 297 177 265 177 l 423 177 q 455 208 455 177 l 455 307 q 427 342 455 336 l 207 391 q 57 578 57 426 l 57 720 q 101 846 57 802 q 227 890 145 890 l 486 890 q 612 846 568 890 q 657 720 657 802 l 657 614 l 448 614 l 448 676 q 417 707 448 707 l 297 707 q 265 676 265 707 l 265 595 q 293 559 265 566 l 513 510 z "},"ş":{"ha":713,"x_min":57,"x_max":663,"o":"m 513 510 q 663 323 663 476 l 663 164 q 619 38 663 82 q 492 -6 574 -6 l 379 -6 l 359 -42 l 424 -42 q 501 -119 501 -42 l 501 -176 q 424 -253 501 -253 l 293 -253 l 246 -170 l 394 -170 q 408 -157 408 -170 l 408 -138 q 394 -124 408 -124 l 253 -124 l 253 -42 l 273 -6 l 227 -6 q 101 38 145 -6 q 57 164 57 82 l 57 282 l 265 282 l 265 208 q 297 177 265 177 l 423 177 q 455 208 455 177 l 455 307 q 427 342 455 336 l 207 391 q 57 578 57 426 l 57 720 q 101 846 57 802 q 227 890 145 890 l 486 890 q 612 846 568 890 q 657 720 657 802 l 657 614 l 448 614 l 448 676 q 417 707 448 707 l 297 707 q 265 676 265 707 l 265 595 q 293 559 265 566 l 513 510 z "},"Š":{"ha":713,"x_min":57,"x_max":663,"o":"m 177 1136 l 309 1136 l 360 1030 l 410 1136 l 543 1136 l 443 953 l 277 953 l 177 1136 m 57 164 l 57 282 l 265 282 l 265 208 q 297 177 265 177 l 423 177 q 455 208 455 177 l 455 307 q 427 342 455 336 l 207 391 q 57 578 57 426 l 57 720 q 101 846 57 802 q 227 890 145 890 l 486 890 q 612 846 568 890 q 657 720 657 802 l 657 614 l 448 614 l 448 676 q 417 707 448 707 l 297 707 q 265 676 265 707 l 265 595 q 293 559 265 566 l 513 510 q 663 323 663 476 l 663 164 q 619 38 663 82 q 492 -6 574 -6 l 227 -6 q 101 38 145 -6 q 57 164 57 82 z "},"š":{"ha":713,"x_min":57,"x_max":663,"o":"m 177 1136 l 309 1136 l 360 1030 l 410 1136 l 543 1136 l 443 953 l 277 953 l 177 1136 m 57 164 l 57 282 l 265 282 l 265 208 q 297 177 265 177 l 423 177 q 455 208 455 177 l 455 307 q 427 342 455 336 l 207 391 q 57 578 57 426 l 57 720 q 101 846 57 802 q 227 890 145 890 l 486 890 q 612 846 568 890 q 657 720 657 802 l 657 614 l 448 614 l 448 676 q 417 707 448 707 l 297 707 q 265 676 265 707 l 265 595 q 293 559 265 566 l 513 510 q 663 323 663 476 l 663 164 q 619 38 663 82 q 492 -6 574 -6 l 227 -6 q 101 38 145 -6 q 57 164 57 82 z "},"Ţ":{"ha":650,"x_min":25,"x_max":625,"o":"m 429 0 l 327 0 l 303 -42 l 369 -42 q 446 -119 446 -42 l 446 -176 q 369 -253 446 -253 l 237 -253 l 191 -170 l 338 -170 q 352 -157 352 -170 l 352 -138 q 338 -124 352 -124 l 197 -124 l 197 -42 l 221 0 l 221 701 l 25 701 l 25 884 l 625 884 l 625 701 l 429 701 l 429 0 z "},"ţ":{"ha":650,"x_min":25,"x_max":625,"o":"m 429 0 l 327 0 l 303 -42 l 369 -42 q 446 -119 446 -42 l 446 -176 q 369 -253 446 -253 l 237 -253 l 191 -170 l 338 -170 q 352 -157 352 -170 l 352 -138 q 338 -124 352 -124 l 197 -124 l 197 -42 l 221 0 l 221 701 l 25 701 l 25 884 l 625 884 l 625 701 l 429 701 l 429 0 z "},"Ť":{"ha":650,"x_min":25,"x_max":625,"o":"m 139 1136 l 271 1136 l 322 1030 l 372 1136 l 505 1136 l 405 953 l 239 953 l 139 1136 m 25 701 l 25 884 l 625 884 l 625 701 l 429 701 l 429 0 l 221 0 l 221 701 l 25 701 z "},"ť":{"ha":650,"x_min":25,"x_max":625,"o":"m 139 1136 l 271 1136 l 322 1030 l 372 1136 l 505 1136 l 405 953 l 239 953 l 139 1136 m 25 701 l 25 884 l 625 884 l 625 701 l 429 701 l 429 0 l 221 0 l 221 701 l 25 701 z "},"Ū":{"ha":747,"x_min":34,"x_max":678,"o":"m 549 1136 l 549 1004 l 202 1004 l 202 1136 l 549 1136 m 470 884 l 678 884 l 678 0 l 249 0 q 122 44 167 0 q 78 170 78 88 l 78 789 l 34 884 l 287 884 l 287 215 q 318 183 287 183 l 470 183 l 470 884 z "},"ū":{"ha":747,"x_min":34,"x_max":678,"o":"m 549 1136 l 549 1004 l 202 1004 l 202 1136 l 549 1136 m 470 884 l 678 884 l 678 0 l 249 0 q 122 44 167 0 q 78 170 78 88 l 78 789 l 34 884 l 287 884 l 287 215 q 318 183 287 183 l 470 183 l 470 884 z "},"Ů":{"ha":747,"x_min":34,"x_max":678,"o":"m 341 915 q 259 999 259 915 l 259 1053 q 341 1136 259 1136 l 419 1136 q 501 1053 501 1136 l 501 999 q 419 915 501 915 l 341 915 m 347 1052 l 347 1000 q 360 987 347 987 l 400 987 q 413 1000 413 987 l 413 1052 q 400 1064 413 1064 l 360 1064 q 347 1052 347 1064 m 470 884 l 678 884 l 678 0 l 249 0 q 122 44 167 0 q 78 170 78 88 l 78 789 l 34 884 l 287 884 l 287 215 q 318 183 287 183 l 470 183 l 470 884 z "},"ů":{"ha":747,"x_min":34,"x_max":678,"o":"m 341 915 q 259 999 259 915 l 259 1053 q 341 1136 259 1136 l 419 1136 q 501 1053 501 1136 l 501 999 q 419 915 501 915 l 341 915 m 347 1052 l 347 1000 q 360 987 347 987 l 400 987 q 413 1000 413 987 l 413 1052 q 400 1064 413 1064 l 360 1064 q 347 1052 347 1064 m 470 884 l 678 884 l 678 0 l 249 0 q 122 44 167 0 q 78 170 78 88 l 78 789 l 34 884 l 287 884 l 287 215 q 318 183 287 183 l 470 183 l 470 884 z "},"Ű":{"ha":747,"x_min":34,"x_max":678,"o":"m 423 1136 l 322 953 l 183 953 l 240 1136 l 423 1136 m 543 953 l 404 953 l 461 1136 l 644 1136 l 543 953 m 470 884 l 678 884 l 678 0 l 249 0 q 122 44 167 0 q 78 170 78 88 l 78 789 l 34 884 l 287 884 l 287 215 q 318 183 287 183 l 470 183 l 470 884 z "},"ű":{"ha":747,"x_min":34,"x_max":678,"o":"m 423 1136 l 322 953 l 183 953 l 240 1136 l 423 1136 m 543 953 l 404 953 l 461 1136 l 644 1136 l 543 953 m 470 884 l 678 884 l 678 0 l 249 0 q 122 44 167 0 q 78 170 78 88 l 78 789 l 34 884 l 287 884 l 287 215 q 318 183 287 183 l 470 183 l 470 884 z "},"Ų":{"ha":747,"x_min":34,"x_max":678,"o":"m 678 0 l 602 0 l 518 -152 l 678 -152 l 621 -253 l 489 -253 q 398 -211 423 -253 q 407 -111 374 -170 l 470 0 l 249 0 q 122 44 167 0 q 78 170 78 88 l 78 789 l 34 884 l 287 884 l 287 215 q 318 183 287 183 l 470 183 l 470 884 l 678 884 l 678 0 z "},"ų":{"ha":747,"x_min":34,"x_max":678,"o":"m 678 0 l 602 0 l 518 -152 l 678 -152 l 621 -253 l 489 -253 q 398 -211 423 -253 q 407 -111 374 -170 l 470 0 l 249 0 q 122 44 167 0 q 78 170 78 88 l 78 789 l 34 884 l 287 884 l 287 215 q 318 183 287 183 l 470 183 l 470 884 l 678 884 l 678 0 z "},"Ÿ":{"ha":707,"x_min":0,"x_max":707,"o":"m 133 1136 l 309 1136 l 309 979 l 133 979 l 133 1136 m 385 1136 l 562 1136 l 562 979 l 385 979 l 385 1136 m 0 884 l 221 884 l 355 528 l 486 884 l 707 884 l 458 299 l 458 0 l 250 0 l 250 299 l 0 884 z "},"Ź":{"ha":669,"x_min":44,"x_max":631,"o":"m 511 1136 l 410 953 l 271 953 l 328 1136 l 511 1136 m 619 884 l 619 701 l 284 183 l 631 183 l 530 0 l 44 0 l 44 183 l 379 701 l 44 701 l 44 884 l 619 884 z "},"ź":{"ha":669,"x_min":44,"x_max":631,"o":"m 511 1136 l 410 953 l 271 953 l 328 1136 l 511 1136 m 619 884 l 619 701 l 284 183 l 631 183 l 530 0 l 44 0 l 44 183 l 379 701 l 44 701 l 44 884 l 619 884 z "},"Ż":{"ha":669,"x_min":44,"x_max":631,"o":"m 259 1136 l 436 1136 l 436 979 l 259 979 l 259 1136 m 619 884 l 619 701 l 284 183 l 631 183 l 530 0 l 44 0 l 44 183 l 379 701 l 44 701 l 44 884 l 619 884 z "},"ż":{"ha":669,"x_min":44,"x_max":631,"o":"m 259 1136 l 436 1136 l 436 979 l 259 979 l 259 1136 m 619 884 l 619 701 l 284 183 l 631 183 l 530 0 l 44 0 l 44 183 l 379 701 l 44 701 l 44 884 l 619 884 z "},"Ž":{"ha":669,"x_min":44,"x_max":631,"o":"m 164 1136 l 297 1136 l 347 1030 l 398 1136 l 530 1136 l 431 953 l 264 953 l 164 1136 m 619 884 l 619 701 l 284 183 l 631 183 l 530 0 l 44 0 l 44 183 l 379 701 l 44 701 l 44 884 l 619 884 z "},"ž":{"ha":669,"x_min":44,"x_max":631,"o":"m 164 1136 l 297 1136 l 347 1030 l 398 1136 l 530 1136 l 431 953 l 264 953 l 164 1136 m 619 884 l 619 701 l 284 183 l 631 183 l 530 0 l 44 0 l 44 183 l 379 701 l 44 701 l 44 884 l 619 884 z "},"ƒ":{"ha":631,"x_min":38,"x_max":631,"o":"m 404 669 l 404 525 l 554 525 l 473 380 l 404 380 l 404 170 q 360 44 404 88 q 234 0 316 0 l 139 0 l 38 183 l 164 183 q 196 215 196 183 l 196 380 l 126 380 l 45 525 l 196 525 l 196 713 q 240 840 196 795 q 366 884 284 884 l 631 884 l 530 701 l 436 701 q 404 669 404 701 z "},"Ș":{"ha":713,"x_min":57,"x_max":663,"o":"m 57 164 l 57 282 l 265 282 l 265 208 q 297 177 265 177 l 423 177 q 455 208 455 177 l 455 307 q 427 342 455 336 l 207 391 q 57 578 57 426 l 57 720 q 101 846 57 802 q 227 890 145 890 l 486 890 q 612 846 568 890 q 657 720 657 802 l 657 614 l 448 614 l 448 676 q 417 707 448 707 l 297 707 q 265 676 265 707 l 265 595 q 293 559 265 566 l 513 510 q 663 323 663 476 l 663 164 q 619 38 663 82 q 492 -6 574 -6 l 227 -6 q 101 38 145 -6 q 57 164 57 82 m 461 -69 l 360 -253 l 221 -253 l 278 -69 l 461 -69 z "},"ș":{"ha":713,"x_min":57,"x_max":663,"o":"m 57 164 l 57 282 l 265 282 l 265 208 q 297 177 265 177 l 423 177 q 455 208 455 177 l 455 307 q 427 342 455 336 l 207 391 q 57 578 57 426 l 57 720 q 101 846 57 802 q 227 890 145 890 l 486 890 q 612 846 568 890 q 657 720 657 802 l 657 614 l 448 614 l 448 676 q 417 707 448 707 l 297 707 q 265 676 265 707 l 265 595 q 293 559 265 566 l 513 510 q 663 323 663 476 l 663 164 q 619 38 663 82 q 492 -6 574 -6 l 227 -6 q 101 38 145 -6 q 57 164 57 82 m 461 -69 l 360 -253 l 221 -253 l 278 -69 l 461 -69 z "},"Ț":{"ha":650,"x_min":25,"x_max":625,"o":"m 25 701 l 25 884 l 625 884 l 625 701 l 429 701 l 429 0 l 221 0 l 221 701 l 25 701 m 423 -69 l 322 -253 l 183 -253 l 240 -69 l 423 -69 z "},"ț":{"ha":650,"x_min":25,"x_max":625,"o":"m 25 701 l 25 884 l 625 884 l 625 701 l 429 701 l 429 0 l 221 0 l 221 701 l 25 701 m 423 -69 l 322 -253 l 183 -253 l 240 -69 l 423 -69 z "},"ˆ":{"ha":429,"x_min":32,"x_max":398,"o":"m 32 953 l 131 1136 l 298 1136 l 398 953 l 265 953 l 215 1059 l 164 953 l 32 953 z "},"ˇ":{"ha":429,"x_min":32,"x_max":398,"o":"m 32 1136 l 164 1136 l 215 1030 l 265 1136 l 398 1136 l 298 953 l 131 953 l 32 1136 z "},"ˉ":{"ha":410,"x_min":32,"x_max":379,"o":"m 32 1136 l 379 1136 l 379 1004 l 32 1004 l 32 1136 z "},"˘":{"ha":429,"x_min":32,"x_max":398,"o":"m 32 1136 l 152 1136 l 152 1073 q 170 1054 152 1054 l 259 1054 q 278 1073 278 1054 l 278 1136 l 398 1136 l 398 1061 q 290 953 398 953 l 139 953 q 32 1061 32 953 l 32 1136 z "},"˙":{"ha":240,"x_min":32,"x_max":208,"o":"m 32 1136 l 208 1136 l 208 979 l 32 979 l 32 1136 z "},"˚":{"ha":306,"x_min":32,"x_max":274,"o":"m 32 999 l 32 1053 q 114 1136 32 1136 l 192 1136 q 274 1053 274 1136 l 274 999 q 192 915 274 915 l 114 915 q 32 999 32 915 m 120 1000 q 133 987 120 987 l 173 987 q 186 1000 186 987 l 186 1052 q 173 1064 186 1064 l 133 1064 q 120 1052 120 1064 l 120 1000 z "},"˛":{"ha":354,"x_min":18,"x_max":322,"o":"m 114 0 l 246 0 l 162 -152 l 322 -152 l 265 -253 l 133 -253 q 42 -211 67 -253 q 51 -111 18 -170 l 114 0 z "},"˜":{"ha":473,"x_min":32,"x_max":442,"o":"m 341 1136 l 442 1136 l 442 1048 q 417 978 442 1003 q 347 953 393 953 l 275 953 l 136 1054 l 133 1054 l 133 953 l 32 953 l 32 1042 q 56 1112 32 1087 q 126 1136 81 1136 l 198 1136 l 337 1035 l 341 1035 l 341 1136 z "},"˝":{"ha":524,"x_min":32,"x_max":492,"o":"m 271 1136 l 170 953 l 32 953 l 88 1136 l 271 1136 m 492 1136 l 391 953 l 253 953 l 309 1136 l 492 1136 z "},"̦":{"ha":0,"x_min":-271,"x_max":-32,"o":"m -32 -69 l -133 -253 l -271 -253 l -215 -69 l -32 -69 z "},"π":{"ha":713,"x_min":25,"x_max":713,"o":"m 626 158 l 713 158 l 625 0 l 556 0 q 448 38 485 0 q 410 145 410 76 l 410 473 l 253 473 l 253 0 l 63 0 l 63 549 l 25 631 l 600 631 l 600 184 q 626 158 600 158 z "},"ẞ":{"ha":729,"x_min":66,"x_max":665,"o":"m 347 183 l 426 183 q 457 215 457 183 l 457 328 q 426 360 457 360 l 347 360 l 347 543 l 426 543 q 457 574 457 543 l 457 676 q 426 707 457 707 l 306 707 q 274 676 274 707 l 274 0 l 66 0 l 66 720 q 110 846 66 802 q 236 890 154 890 l 495 890 q 621 846 577 890 q 665 720 665 802 l 665 530 l 586 451 l 665 371 l 665 170 q 621 44 665 88 q 495 0 577 0 l 347 0 l 347 183 z "},"–":{"ha":593,"x_min":44,"x_max":549,"o":"m 44 534 l 549 534 l 549 376 l 44 376 l 44 534 z "},"—":{"ha":720,"x_min":44,"x_max":676,"o":"m 44 534 l 676 534 l 676 376 l 44 376 l 44 534 z "},"‘":{"ha":271,"x_min":32,"x_max":240,"o":"m 240 783 l 240 600 l 32 600 l 32 783 q 133 884 32 884 l 133 783 l 240 783 z "},"’":{"ha":271,"x_min":32,"x_max":240,"o":"m 32 701 l 32 884 l 240 884 l 240 701 q 139 600 240 600 l 139 701 l 32 701 z "},"‚":{"ha":271,"x_min":32,"x_max":240,"o":"m 32 0 l 32 183 l 240 183 l 240 0 q 139 -101 240 -101 l 139 0 l 32 0 z "},"“":{"ha":530,"x_min":32,"x_max":499,"o":"m 240 783 l 240 600 l 32 600 l 32 783 q 133 884 32 884 l 133 783 l 240 783 m 499 783 l 499 600 l 290 600 l 290 783 q 391 884 290 884 l 391 783 l 499 783 z "},"”":{"ha":530,"x_min":32,"x_max":499,"o":"m 32 701 l 32 884 l 240 884 l 240 701 q 139 600 240 600 l 139 701 l 32 701 m 290 701 l 290 884 l 499 884 l 499 701 q 398 600 499 600 l 398 701 l 290 701 z "},"„":{"ha":537,"x_min":32,"x_max":505,"o":"m 32 0 l 32 183 l 240 183 l 240 0 q 139 -101 240 -101 l 139 0 l 32 0 m 297 0 l 297 183 l 505 183 l 505 0 q 404 -101 505 -101 l 404 0 l 297 0 z "},"†":{"ha":475,"x_min":32,"x_max":443,"o":"m 443 802 l 370 669 l 313 669 l 313 379 l 162 379 l 162 669 l 32 669 l 105 802 l 162 802 l 162 884 l 313 884 l 313 802 l 443 802 z "},"‡":{"ha":475,"x_min":32,"x_max":443,"o":"m 313 669 l 313 593 l 443 593 l 370 461 l 313 461 l 313 379 l 162 379 l 162 461 l 32 461 l 105 593 l 162 593 l 162 669 l 32 669 l 105 802 l 162 802 l 162 884 l 313 884 l 313 802 l 443 802 l 370 669 l 313 669 z "},"•":{"ha":436,"x_min":63,"x_max":372,"o":"m 63 439 l 63 463 q 95 555 63 523 q 187 587 128 587 l 249 587 q 340 555 308 587 q 372 463 372 523 l 372 439 q 340 348 372 380 q 249 316 308 316 l 187 316 q 95 348 128 316 q 63 439 63 380 z "},"…":{"ha":802,"x_min":32,"x_max":770,"o":"m 32 183 l 240 183 l 240 0 l 32 0 l 32 183 m 297 183 l 505 183 l 505 0 l 297 0 l 297 183 m 562 183 l 770 183 l 770 0 l 562 0 l 562 183 z "},"‰":{"ha":1480,"x_min":51,"x_max":1429,"o":"m 148 379 q 51 476 51 379 l 51 787 q 148 884 51 884 l 301 884 q 398 787 398 884 l 398 476 q 301 379 398 379 l 148 379 m 670 884 l 809 884 l 386 0 l 247 0 l 670 884 m 170 504 q 188 486 170 486 l 260 486 q 278 504 278 486 l 278 759 q 260 777 278 777 l 188 777 q 170 759 170 777 l 170 504 m 756 0 q 659 97 659 0 l 659 408 q 756 505 659 505 l 909 505 q 1006 408 1006 505 l 1006 97 q 909 0 1006 0 l 756 0 m 1179 0 q 1082 97 1082 0 l 1082 408 q 1179 505 1082 505 l 1332 505 q 1429 408 1429 505 l 1429 97 q 1332 0 1429 0 l 1179 0 m 779 125 q 797 107 779 107 l 869 107 q 886 125 886 107 l 886 380 q 869 398 886 398 l 797 398 q 779 380 779 398 l 779 125 m 1202 125 q 1220 107 1202 107 l 1292 107 q 1309 125 1309 107 l 1309 380 q 1292 398 1309 398 l 1220 398 q 1202 380 1202 398 l 1202 125 z "},"‹":{"ha":410,"x_min":32,"x_max":379,"o":"m 379 235 l 196 235 l 32 456 l 196 677 l 379 677 l 215 456 l 379 235 z "},"›":{"ha":410,"x_min":32,"x_max":379,"o":"m 32 235 l 196 456 l 32 677 l 215 677 l 379 456 l 215 235 l 32 235 z "},"⁄":{"ha":158,"x_min":-202,"x_max":360,"o":"m 221 884 l 360 884 l -63 0 l -202 0 l 221 884 z "},"⁰":{"ha":448,"x_min":51,"x_max":398,"o":"m 148 379 q 51 476 51 379 l 51 787 q 148 884 51 884 l 301 884 q 398 787 398 884 l 398 476 q 301 379 398 379 l 148 379 m 170 504 q 188 486 170 486 l 260 486 q 278 504 278 486 l 278 759 q 260 777 278 777 l 188 777 q 170 759 170 777 l 170 504 z "},"⁴":{"ha":417,"x_min":25,"x_max":404,"o":"m 25 482 l 25 590 l 206 884 l 360 884 l 360 590 l 404 590 l 360 506 l 360 379 l 240 379 l 240 482 l 25 482 m 139 590 l 240 590 l 240 755 l 139 590 z "},"⁵":{"ha":442,"x_min":51,"x_max":404,"o":"m 51 476 l 51 544 l 170 544 l 170 505 q 189 486 170 486 l 260 486 q 278 505 278 486 l 278 586 q 260 604 278 604 l 51 604 l 51 884 l 404 884 l 346 777 l 170 777 l 170 711 l 301 711 q 372 686 347 711 q 398 614 398 660 l 398 476 q 301 379 398 379 l 148 379 q 51 476 51 379 z "},"⁶":{"ha":442,"x_min":51,"x_max":404,"o":"m 51 476 l 51 787 q 148 884 51 884 l 404 884 l 346 777 l 189 777 q 170 759 170 777 l 170 711 l 301 711 q 372 686 347 711 q 398 614 398 660 l 398 476 q 301 379 398 379 l 148 379 q 51 476 51 379 m 170 504 q 189 486 170 486 l 260 486 q 278 504 278 486 l 278 586 q 260 604 278 604 l 170 604 l 170 504 z "},"⁷":{"ha":379,"x_min":25,"x_max":354,"o":"m 25 777 l 25 884 l 354 884 l 354 777 l 245 554 l 245 379 l 125 379 l 125 568 q 136 612 125 590 l 220 777 l 25 777 z "},"⁸":{"ha":448,"x_min":51,"x_max":398,"o":"m 51 476 l 51 591 l 96 636 l 51 682 l 51 787 q 148 884 51 884 l 301 884 q 398 787 398 884 l 398 682 l 352 636 l 398 591 l 398 476 q 301 379 398 379 l 148 379 q 51 476 51 379 m 170 708 q 188 691 170 691 l 259 691 q 278 708 278 691 l 278 759 q 259 777 278 777 l 188 777 q 170 759 170 777 l 170 708 m 170 504 q 188 486 170 486 l 259 486 q 278 504 278 486 l 278 566 q 259 583 278 583 l 188 583 q 170 566 170 583 l 170 504 z "},"⁹":{"ha":442,"x_min":44,"x_max":391,"o":"m 391 787 l 391 476 q 294 379 391 379 l 101 379 l 44 486 l 253 486 q 271 504 271 486 l 271 552 l 141 552 q 69 577 95 552 q 44 649 44 602 l 44 787 q 141 884 44 884 l 294 884 q 391 787 391 884 m 271 759 q 253 777 271 777 l 182 777 q 164 759 164 777 l 164 677 q 182 659 164 659 l 271 659 l 271 759 z "},"₀":{"ha":448,"x_min":51,"x_max":398,"o":"m 148 0 q 51 97 51 0 l 51 408 q 148 505 51 505 l 301 505 q 398 408 398 505 l 398 97 q 301 0 398 0 l 148 0 m 170 125 q 188 107 170 107 l 260 107 q 278 125 278 107 l 278 380 q 260 398 278 398 l 188 398 q 170 380 170 398 l 170 125 z "},"₁":{"ha":253,"x_min":25,"x_max":202,"o":"m 25 505 l 202 505 l 202 0 l 82 0 l 82 398 l 25 398 l 25 505 z "},"₂":{"ha":448,"x_min":51,"x_max":404,"o":"m 51 0 l 51 159 q 136 265 51 246 l 261 294 q 278 314 278 298 l 278 380 q 260 398 278 398 l 191 398 q 173 380 173 398 l 173 340 l 53 340 l 53 408 q 150 505 53 505 l 301 505 q 398 408 398 505 l 398 304 q 312 198 398 217 l 187 169 q 170 149 170 165 l 170 107 l 404 107 l 346 0 l 51 0 z "},"₃":{"ha":442,"x_min":44,"x_max":391,"o":"m 44 97 l 44 165 l 164 165 l 164 125 q 182 107 164 107 l 254 107 q 271 125 271 107 l 271 187 q 254 205 271 205 l 164 205 l 164 312 l 254 312 q 271 330 271 312 l 271 380 q 254 398 271 398 l 182 398 q 164 380 164 398 l 164 346 l 44 346 l 44 408 q 141 505 44 505 l 294 505 q 391 408 391 505 l 391 303 l 346 258 l 391 212 l 391 97 q 294 0 391 0 l 141 0 q 44 97 44 0 z "},"₄":{"ha":417,"x_min":25,"x_max":404,"o":"m 25 104 l 25 211 l 206 505 l 360 505 l 360 211 l 404 211 l 360 128 l 360 0 l 240 0 l 240 104 l 25 104 m 139 211 l 240 211 l 240 376 l 139 211 z "},"₅":{"ha":442,"x_min":51,"x_max":404,"o":"m 51 97 l 51 165 l 170 165 l 170 126 q 189 107 170 107 l 260 107 q 278 126 278 107 l 278 207 q 260 225 278 225 l 51 225 l 51 505 l 404 505 l 346 398 l 170 398 l 170 332 l 301 332 q 372 307 347 332 q 398 235 398 282 l 398 97 q 301 0 398 0 l 148 0 q 51 97 51 0 z "},"₆":{"ha":442,"x_min":51,"x_max":404,"o":"m 51 97 l 51 408 q 148 505 51 505 l 404 505 l 346 398 l 189 398 q 170 380 170 398 l 170 332 l 301 332 q 372 307 347 332 q 398 235 398 282 l 398 97 q 301 0 398 0 l 148 0 q 51 97 51 0 m 170 125 q 189 107 170 107 l 260 107 q 278 125 278 107 l 278 207 q 260 225 278 225 l 170 225 l 170 125 z "},"₇":{"ha":379,"x_min":25,"x_max":354,"o":"m 25 398 l 25 505 l 354 505 l 354 398 l 245 176 l 245 0 l 125 0 l 125 189 q 136 234 125 211 l 220 398 l 25 398 z "},"₈":{"ha":448,"x_min":51,"x_max":398,"o":"m 51 97 l 51 212 l 96 258 l 51 303 l 51 408 q 148 505 51 505 l 301 505 q 398 408 398 505 l 398 303 l 352 258 l 398 212 l 398 97 q 301 0 398 0 l 148 0 q 51 97 51 0 m 170 330 q 188 312 170 312 l 259 312 q 278 330 278 312 l 278 380 q 259 398 278 398 l 188 398 q 170 380 170 398 l 170 330 m 170 125 q 188 107 170 107 l 259 107 q 278 125 278 107 l 278 187 q 259 205 278 205 l 188 205 q 170 187 170 205 l 170 125 z "},"₉":{"ha":442,"x_min":44,"x_max":391,"o":"m 391 408 l 391 97 q 294 0 391 0 l 101 0 l 44 107 l 253 107 q 271 125 271 107 l 271 173 l 141 173 q 69 198 95 173 q 44 270 44 223 l 44 408 q 141 505 44 505 l 294 505 q 391 408 391 505 m 271 380 q 253 398 271 398 l 182 398 q 164 380 164 398 l 164 298 q 182 280 164 280 l 271 280 l 271 380 z "},"€":{"ha":744,"x_min":6,"x_max":687,"o":"m 687 614 l 479 614 l 479 676 q 447 707 479 707 l 327 707 q 295 676 295 707 l 295 525 l 559 525 l 479 380 l 295 380 l 295 208 q 327 177 295 177 l 447 177 q 479 208 479 177 l 479 282 l 687 282 l 687 164 q 643 38 687 82 q 516 -6 598 -6 l 258 -6 q 131 38 176 -6 q 87 164 87 82 l 87 380 l 6 525 l 87 525 l 87 720 q 131 846 87 802 q 258 890 176 890 l 516 890 q 643 846 598 890 q 687 720 687 802 l 687 614 z "},"™":{"ha":821,"x_min":25,"x_max":777,"o":"m 25 793 l 25 884 l 326 884 l 326 793 l 227 793 l 227 442 l 124 442 l 124 793 l 25 793 m 372 442 l 372 884 l 480 884 l 574 708 l 669 884 l 777 884 l 777 442 l 673 442 l 673 701 l 574 525 l 477 701 l 477 442 l 372 442 z "},"−":{"ha":436,"x_min":57,"x_max":404,"o":"m 57 534 l 404 534 l 404 376 l 57 376 l 57 534 z "},"∕":{"ha":562,"x_min":0,"x_max":562,"o":"m 423 884 l 562 884 l 139 0 l 0 0 l 423 884 z "},"∙":{"ha":436,"x_min":63,"x_max":372,"o":"m 63 439 l 63 463 q 95 555 63 523 q 187 587 128 587 l 249 587 q 340 555 308 587 q 372 463 372 523 l 372 439 q 340 348 372 380 q 249 316 308 316 l 187 316 q 95 348 128 316 q 63 439 63 380 z "},"∞":{"ha":997,"x_min":57,"x_max":941,"o":"m 57 620 q 94 727 57 689 q 202 765 131 765 l 431 765 l 499 697 l 567 765 l 795 765 q 903 727 866 765 q 941 620 941 689 l 941 279 q 903 172 941 210 q 795 134 866 134 l 567 134 l 499 202 l 431 134 l 202 134 q 94 172 131 134 q 57 279 57 210 l 57 620 m 246 581 l 246 318 q 273 292 246 292 l 446 292 l 380 585 q 351 607 375 607 l 273 607 q 246 581 246 607 m 552 607 l 617 314 q 646 292 622 292 l 725 292 q 751 318 751 292 l 751 581 q 725 607 751 607 l 552 607 z "},"≈":{"ha":499,"x_min":44,"x_max":455,"o":"m 354 679 l 455 679 l 455 591 q 430 521 455 545 q 360 496 405 496 l 288 496 l 149 597 l 145 597 l 145 496 l 44 496 l 44 585 q 69 655 44 630 q 139 679 93 679 l 211 679 l 350 578 l 354 578 l 354 679 m 354 414 l 455 414 l 455 326 q 430 256 455 280 q 360 231 405 231 l 288 231 l 149 332 l 145 332 l 145 231 l 44 231 l 44 319 q 69 390 44 365 q 139 414 93 414 l 211 414 l 350 313 l 354 313 l 354 414 z "},"≠":{"ha":436,"x_min":44,"x_max":391,"o":"m 391 408 l 391 260 l 182 261 l 158 199 l 76 199 l 100 263 l 44 263 l 44 408 l 157 408 l 192 503 l 44 503 l 44 648 l 249 648 l 273 711 l 355 711 l 331 648 l 386 648 l 386 503 l 274 503 l 239 408 l 391 408 z "},"≤":{"ha":505,"x_min":63,"x_max":442,"o":"m 442 758 l 442 593 l 221 505 l 442 417 l 442 133 l 63 133 l 63 265 l 414 265 l 63 423 l 63 587 l 442 758 z "},"≥":{"ha":505,"x_min":63,"x_max":442,"o":"m 442 587 l 442 423 l 91 265 l 442 265 l 442 133 l 63 133 l 63 417 l 284 505 l 63 593 l 63 758 l 442 587 z "},"ﬁ":{"ha":1010,"x_min":38,"x_max":941,"o":"m 543 701 l 290 701 l 290 543 l 581 543 l 480 360 l 290 360 l 290 0 l 82 0 l 82 789 l 38 884 l 644 884 l 543 701 m 941 884 l 941 0 l 732 0 l 732 789 l 688 884 l 941 884 z "}}}
